<svg width="32" height="32" viewBox="0 0 32 32" fill="none" xmlns="http://www.w3.org/2000/svg">
<path fill-rule="evenodd" clip-rule="evenodd" d="M27 12C27 17.738 22.6065 22.4499 17 22.9552V25.1707C17.8524 25.472 18.528 26.1476 18.8293 27H29V29H18.8293C18.4175 30.1652 17.3062 31 16 31C14.6938 31 13.5825 30.1652 13.1707 29H3V27H13.1707C13.472 26.1476 14.1476 25.472 15 25.1707V22.9552C9.3935 22.4499 5 17.738 5 12C5 5.92487 9.92487 1 16 1C22.0751 1 27 5.92487 27 12ZM13.3589 5.37615C14.2106 3.67281 15.2021 3 16 3C16.7979 3 17.7894 3.67281 18.6411 5.37615C19.3575 6.8089 19.8576 8.77133 19.974 11H12.026C12.1424 8.77133 12.6425 6.8089 13.3589 5.37615ZM10.0235 11C10.1415 8.50526 10.6975 6.22679 11.57 4.48172C11.6459 4.33006 11.7252 4.18059 11.8078 4.03392C9.22843 5.39415 7.38983 7.97047 7.05493 11H10.0235ZM7.05493 13H10.0235C10.1415 15.4947 10.6975 17.7732 11.57 19.5183C11.6459 19.6699 11.7252 19.8194 11.8078 19.9661C9.22843 18.6059 7.38983 16.0295 7.05493 13ZM19.974 13C19.8576 15.2287 19.3575 17.1911 18.6411 18.6239C17.7894 20.3272 16.7979 21 16 21C15.2021 21 14.2106 20.3272 13.3589 18.6239C12.6425 17.1911 12.1424 15.2287 12.026 13H19.974ZM21.9765 13C21.8585 15.4947 21.3025 17.7732 20.43 19.5183C20.3541 19.6699 20.2749 19.8194 20.1922 19.9661C22.7716 18.6059 24.6102 16.0295 24.9451 13H21.9765ZM24.9451 11C24.6102 7.97047 22.7716 5.39415 20.1922 4.03392C20.2748 4.18059 20.3541 4.33006 20.43 4.48172C21.3025 6.22679 21.8585 8.50526 21.9765 11H24.9451ZM16 27C15.4477 27 15 27.4477 15 28C15 28.5523 15.4477 29 16 29C16.5523 29 17 28.5523 17 28C17 27.4477 16.5523 27 16 27Z" fill="#F0F7FF"/>
</svg>
