<svg width="32" height="32" viewBox="0 0 32 32" fill="none" xmlns="http://www.w3.org/2000/svg">
<path d="M16.0204 10.0529C14.2167 10.0529 12.5703 10.705 11.3124 11.783C10.991 12.0584 10.5003 12.0291 10.2162 11.7176C9.93218 11.4061 9.96239 10.9303 10.2837 10.655C11.8137 9.34388 13.8223 8.54736 16.0204 8.54736C18.2185 8.54736 20.2271 9.34388 21.7571 10.655C22.0784 10.9303 22.1086 11.4061 21.8246 11.7176C21.5405 12.0291 21.0498 12.0584 20.7285 11.783C19.4705 10.705 17.8241 10.0529 16.0204 10.0529Z" fill="#F0F7FF"/>
<path d="M10.0215 16.9778C10.0215 13.7417 12.711 11.1096 16.0397 11.1096C19.3683 11.1096 22.0579 13.7417 22.0579 16.9778V18.8281C22.0579 19.2438 21.7102 19.5808 21.2814 19.5808C20.8525 19.5808 20.5048 19.2438 20.5048 18.8281V16.9778C20.5048 14.5636 18.5008 12.6152 16.0397 12.6152C13.5786 12.6152 11.5746 14.5636 11.5746 16.9778V17.934C11.5746 18.7018 11.654 19.4616 11.8083 20.2029C11.8931 20.6104 11.6211 21.0074 11.2007 21.0897C10.7803 21.172 10.3708 20.9083 10.2859 20.5007C10.1113 19.662 10.0215 18.8025 10.0215 17.934V16.9778Z" fill="#F0F7FF"/>
<path d="M12.5859 17.0866C12.5859 15.233 14.1271 13.7217 16.0391 13.7217C17.9511 13.7217 19.4922 15.233 19.4922 17.0866V18.2455C19.4922 19.0477 19.8188 19.8159 20.3984 20.3816C20.7006 20.6765 20.699 21.1532 20.3947 21.4462C20.0904 21.7391 19.5988 21.7376 19.2965 21.4426C18.4268 20.5938 17.9391 19.4437 17.9391 18.2455V17.0866C17.9391 16.0549 17.0835 15.2273 16.0391 15.2273C14.9946 15.2273 14.139 16.0549 14.139 17.0866V17.9394C14.139 18.3551 13.7913 18.6922 13.3625 18.6922C12.9336 18.6922 12.5859 18.3551 12.5859 17.9394V17.0866Z" fill="#F0F7FF"/>
<path d="M16.0383 16.3337C16.4671 16.3337 16.8148 16.6708 16.8148 17.0865V18.0821C16.8148 19.616 17.4392 21.0861 18.5491 22.1692C18.8513 22.4642 18.8497 22.9408 18.5454 23.2338C18.2411 23.5268 17.7495 23.5252 17.4472 23.2303C16.0473 21.864 15.2617 20.0121 15.2617 18.0821V17.0865C15.2617 16.6708 15.6094 16.3337 16.0383 16.3337Z" fill="#F0F7FF"/>
<path d="M13.4893 19.6246C13.9035 19.5167 14.3295 19.7548 14.4407 20.1563C14.6509 20.9143 14.9678 21.6405 15.3824 22.3138C15.6023 22.6707 15.482 23.1329 15.1138 23.346C14.7456 23.5591 14.2688 23.4425 14.0489 23.0856C13.5609 22.2931 13.188 21.4386 12.9409 20.5469C12.8296 20.1454 13.0751 19.7325 13.4893 19.6246Z" fill="#F0F7FF"/>
<path fill-rule="evenodd" clip-rule="evenodd" d="M4 6.49758C4 6.49758 4.00001 9.49034 4.00001 12.6184C4.00001 19.8551 5.77907 25.9082 16 30C26.2209 25.9082 28 19.8551 28 12.6184C28 9.49034 28 6.49758 28 6.49758L16 2L4 6.49758ZM16 4.32038L6.23257 7.98121L6.23257 12.6184C6.23257 16.0951 6.66828 18.9703 8.10676 21.4168C9.43436 23.6747 11.7613 25.8074 16 27.6447C20.2387 25.8074 22.5656 23.6747 23.8932 21.4168C25.3317 18.9703 25.7674 16.095 25.7674 12.6184V7.98121L16 4.32038Z" fill="#F0F7FF"/>
</svg>
