<svg width="32" height="32" viewBox="0 0 32 32" fill="none" xmlns="http://www.w3.org/2000/svg">
<path fill-rule="evenodd" clip-rule="evenodd" d="M4.00001 11.9976L4 5.65821L16 1L28 5.65821V11.9976C28 19.4928 26.2209 25.7621 16 30C5.77907 25.7621 4.00001 19.4928 4.00001 11.9976ZM6.23257 7.19483L16 3.40325L25.7674 7.19483V11.9976C25.7674 15.5984 25.3317 18.5763 23.8932 21.1103C22.5656 23.4488 20.2387 25.6577 16 27.5606C11.7613 25.6577 9.43436 23.4488 8.10676 21.1103C6.66828 18.5764 6.23257 15.5985 6.23257 11.9976L6.23257 7.19483ZM19.3481 9.96608C19.3481 11.823 17.8488 13.3284 15.9992 13.3284C14.1497 13.3284 12.6504 11.823 12.6504 9.96608C12.6504 8.10913 14.1497 6.60376 15.9992 6.60376C17.8488 6.60376 19.3481 8.10913 19.3481 9.96608ZM10.4198 13.2935C9.52826 11.7897 11.3938 10.7192 12.1512 12.1007C12.8972 13.4612 14.3428 14.3793 15.9992 14.3793C16.9767 14.3793 17.8797 14.0589 18.6096 13.517C19.0538 14.41 19.3187 15.3787 19.3584 15.5285C19.658 16.5934 19.8284 17.6826 19.8284 18.5941C19.8284 18.9984 19.284 19.295 18.4849 19.484C18.408 20.4397 18.2987 21.3932 18.1571 22.3426L17.9796 23.5322C17.9056 24.0288 17.4808 24.3962 16.9809 24.3962H15.0177C14.5178 24.3962 14.0931 24.0288 14.019 23.5322L13.8415 22.3426C13.5264 20.2303 13.377 18.0631 13.3828 15.9294C12.1434 15.3804 11.1073 14.4532 10.4198 13.2935Z" fill="#F0F7FF"/>
</svg>
