<svg width="32" height="32" viewBox="0 0 32 32" fill="none" xmlns="http://www.w3.org/2000/svg">
<path fill-rule="evenodd" clip-rule="evenodd" d="M10.2434 4.17048L4 6.50932C4 6.50932 4.00001 9.50058 4.00001 12.627C4.00001 19.8601 5.77907 25.9103 16 30C26.2209 25.9103 28 19.8601 28 12.627C28 9.50058 28 6.50932 28 6.50932L21.7566 4.17048C20.588 2.2718 18.4473 1 16 1C13.5527 1 11.412 2.2718 10.2434 4.17048ZM18.5814 13.4795C20.6758 12.6312 22.2307 10.7817 22.609 8.54842L17.3787 6.58909C17.1288 7.08236 16.6053 7.42191 16 7.42191C15.1523 7.42191 14.4651 6.75609 14.4651 5.93473C14.4651 5.11337 15.1523 4.44755 16 4.44755C16.1969 4.44755 16.3852 4.48348 16.5581 4.54892L18.07 5.10867L25.7674 7.99221V12.627C25.7674 16.102 25.3317 18.9758 23.8932 21.4211C22.5656 23.6779 20.2387 25.8095 16 27.6459C11.7613 25.8095 9.43436 23.6779 8.10676 21.4211C6.66828 18.9758 6.23257 16.102 6.23257 12.627L6.23257 7.99221L9.33655 6.82941C9.31391 7.04647 9.30233 7.26667 9.30233 7.48951C9.30233 10.1871 11.0011 12.5003 13.4186 13.4795V18.4744L15.2326 20.2319L13.4186 21.9895V23.7117C14.1456 24.2085 14.9977 24.7002 16 25.1812C17.0023 24.7002 17.8544 24.2085 18.5814 23.7117V13.4795Z" fill="#F0F7FF"/>
</svg>
