<svg width="208" height="208" viewBox="0 0 208 208" fill="none" xmlns="http://www.w3.org/2000/svg">
<rect x="16.5" y="104.5" width="31" height="31" rx="5.5" stroke="#006DFF"/>
<rect x="16.5" y="68.5" width="31" height="31" rx="5.5" stroke="#006DFF"/>
<rect x="16.5" y="32.5" width="31" height="31" rx="5.5" stroke="#006DFF"/>
<rect x="160.5" y="104.5" width="31" height="31" rx="5.5" stroke="#006DFF"/>
<rect x="160.5" y="68.5" width="31" height="31" rx="5.5" stroke="#006DFF"/>
<rect x="160.5" y="32.5" width="31" height="31" rx="5.5" stroke="#006DFF"/>
<path d="M48 120H52C56.4183 120 60 116.418 60 112V92C60 87.5817 63.5817 84 68 84H140C144.418 84 148 80.4183 148 76V56C148 51.5817 151.582 48 156 48H160" stroke="#006DFF"/>
<path d="M48 48H52C56.4183 48 60 51.5817 60 56V76C60 80.4183 63.5817 84 68 84H140C144.418 84 148 87.5817 148 92V112C148 116.418 151.582 120 156 120H160" stroke="#006DFF"/>
<path d="M48 84H160" stroke="#006DFF"/>
</svg>
