<svg width="32" height="32" viewBox="0 0 32 32" fill="none" xmlns="http://www.w3.org/2000/svg">
<path d="M21.5076 2.59009L20.2835 3.81414C17.5731 1.10375 13.1141 1.10375 10.4037 3.81414L9.17969 2.59009C12.5895 -0.819744 18.0977 -0.819744 21.5076 2.59009Z" fill="white"/>
<path d="M11.6289 5.12563C13.6398 3.1147 16.9622 3.1147 19.0606 5.12563L17.8366 6.34967C16.4376 4.95076 14.2519 4.95076 12.8529 6.34967L11.6289 5.12563Z" fill="white"/>
<path d="M14.1641 7.57378C14.8635 6.87433 15.9127 6.87433 16.6122 7.57378L15.3881 8.79783L14.1641 7.57378Z" fill="white"/>
<path d="M8.30539 18.0655C8.30539 17.4535 7.7808 17.0164 7.25621 17.0164C6.73162 17.0164 6.20703 17.5409 6.20703 18.0655C6.20703 18.5901 6.73162 19.1147 7.25621 19.1147C7.7808 19.1147 8.30539 18.5901 8.30539 18.0655Z" fill="white"/>
<path d="M11.8034 18.0655C11.8034 17.4535 11.2788 17.0164 10.7543 17.0164C10.2297 17.0164 9.70508 17.5409 9.70508 18.0655C9.70508 18.5901 10.2297 19.1147 10.7543 19.1147C11.2788 19.1147 11.8034 18.5901 11.8034 18.0655Z" fill="white"/>
<path d="M15.2995 18.0655C15.2995 17.4535 14.7749 17.0164 14.2504 17.0164C13.7258 17.0164 13.2012 17.5409 13.2012 18.0655C13.2012 18.5901 13.7258 19.1147 14.2504 19.1147C14.7749 19.1147 15.2995 18.5901 15.2995 18.0655Z" fill="white"/>
<path fill-rule="evenodd" clip-rule="evenodd" d="M21.4213 23.3115L20.1973 24.5355L21.9459 26.2842C22.2956 26.6339 22.8202 26.6339 23.1699 26.2842L26.2301 23.224L25.006 22L22.5579 24.4481L21.4213 23.3115Z" fill="white"/>
<path fill-rule="evenodd" clip-rule="evenodd" d="M22.9952 17.3662L16.875 19.7269V23.0493C16.875 24.7979 17.0499 26.5465 17.9242 28.1203C18.7985 29.6941 20.2848 30.9181 22.7329 31.9673H22.9078H23.0827C25.5307 30.9181 27.0171 29.6941 27.8914 28.1203C28.7657 26.5465 28.9406 24.8853 28.9406 23.0493V19.7269L22.8204 17.3662H22.9952ZM27.3668 23.0493C27.3668 24.7105 27.1919 26.1094 26.4925 27.246C25.8805 28.2952 24.8313 29.2569 22.9952 30.1312C21.0717 29.2569 20.0225 28.2952 19.498 27.246C18.8859 26.1094 18.6236 24.7105 18.6236 23.0493V20.9509L22.9952 19.2897L27.3668 20.9509V23.0493Z" fill="white"/>
<path fill-rule="evenodd" clip-rule="evenodd" d="M15.0387 22.6121V20.9509H5.6835C5.15891 20.9509 4.80918 20.6012 4.80918 20.0766V16.1421C4.80918 15.6176 5.15891 15.2678 5.6835 15.2678H24.9185C25.4431 15.2678 25.7928 15.6176 25.7928 16.1421V16.4044L27.5414 17.1039V16.2296C27.5414 14.7432 26.4048 13.6066 24.9185 13.6066H24.0442V6.52466H22.2955V13.5192H8.30645V6.52466H6.55781V13.5192H5.6835C4.19716 13.5192 3.06055 14.6558 3.06055 16.1421V20.0766C3.06055 21.5629 4.19716 22.6995 5.6835 22.6995H15.0387V22.6121Z" fill="white"/>
</svg>
