<svg width="32" height="32" viewBox="0 0 32 32" fill="none" xmlns="http://www.w3.org/2000/svg">
<path fill-rule="evenodd" clip-rule="evenodd" d="M23.1421 6.07099L21.7279 7.48521C18.6037 4.36105 13.5384 4.36105 10.4142 7.48521L9 6.07099C12.9052 2.16579 19.2368 2.16579 23.1421 6.07099ZM11.8281 8.89942C14.1713 6.55631 17.9702 6.55631 20.3134 8.89942L18.8991 10.3136C17.3371 8.75157 14.8044 8.75157 13.2423 10.3136L11.8281 8.89942ZM17.4847 11.7278C16.7036 10.9468 15.4374 10.9468 14.6563 11.7278L16.0704 13.142L17.4847 11.7278ZM8 23.75C8 23.0597 7.44036 22.5 6.75 22.5C6.05964 22.5 5.5 23.0597 5.5 23.75C5.5 24.4404 6.05964 25 6.75 25C7.44036 25 8 24.4404 8 23.75ZM10.75 22.5C11.4404 22.5 12 23.0597 12 23.75C12 24.4404 11.4404 25 10.75 25C10.0596 25 9.5 24.4404 9.5 23.75C9.5 23.0597 10.0596 22.5 10.75 22.5ZM16 23.75C16 23.0597 15.4404 22.5 14.75 22.5C14.0596 22.5 13.5 23.0597 13.5 23.75C13.5 24.4404 14.0596 25 14.75 25C15.4404 25 16 24.4404 16 23.75ZM8 10.5V18.5H24V10.5H26V18.5H27C28.6569 18.5 30 19.8432 30 21.5001V26.0001C30 27.6569 28.6569 29 27 29H5C3.34314 29 1.99999 27.6569 2 26L2.00002 21.5C2.00002 19.8432 3.34317 18.5 5.00002 18.5H6V10.5H8ZM5.00002 20.5C4.44773 20.5 4.00002 20.9478 4.00002 21.5L4 26C4 26.5523 4.44771 27 5 27H27C27.5523 27 28 26.5523 28 26V21.5C28 20.9478 27.5523 20.5 27 20.5H5.00002Z" fill="#F0F7FF"/>
</svg>
