<svg width="32" height="32" viewBox="0 0 32 32" fill="none" xmlns="http://www.w3.org/2000/svg">
<path fill-rule="evenodd" clip-rule="evenodd" d="M2.39273 10.3929C8.2506 4.53505 17.7481 4.53505 23.606 10.3929L25.0202 8.9787C18.3813 2.33978 7.61743 2.33978 0.978516 8.9787L2.39273 10.3929ZM19.8745 11.1607C19.0939 11.2882 18.3177 11.4519 17.5486 11.6519L16.9473 11.8083C13.2987 10.243 8.90851 10.9498 5.92983 13.9284L4.51562 12.5142C8.69617 8.3337 15.1938 7.88253 19.8745 11.1607ZM15.1947 16.5051V14.3507C12.7646 13.5509 9.98329 14.1173 8.05078 16.0498L9.465 17.464C11.015 15.914 13.3294 15.5944 15.1947 16.5051ZM13 19.5C12.1716 19.5 11.5 20.1716 11.5 21C11.5 21.8284 12.1716 22.5 13 22.5C13.8284 22.5 14.5 21.8284 14.5 21C14.5 20.1716 13.8284 19.5 13 19.5ZM24.2073 22.2072L27.7073 18.7072L26.293 17.293L23.5002 20.0859L22.2073 18.793L20.793 20.2072L22.793 22.2072C23.1836 22.5977 23.8167 22.5977 24.2073 22.2072ZM24 12L31 14.7195V18.5131C31 20.5535 30.7603 22.5141 29.7658 24.2671C28.7648 26.0319 27.0433 27.5106 24.2283 28.6787L24 28.7735L23.7717 28.6787C20.9567 27.5106 19.2352 26.0319 18.2341 24.2671C17.2397 22.5141 17 20.5535 17 18.5131V14.7195L24 12ZM19 16.0881L24 14.1456L29 16.0881V18.5131C29 20.4233 28.7682 21.9723 28.0262 23.2803C27.3536 24.4661 26.1739 25.6044 24 26.5972C21.8261 25.6044 20.6464 24.4661 19.9738 23.2803C19.2318 21.9723 19 20.4233 19 18.5131V16.0881Z" fill="#F0F7FF"/>
</svg>
