<svg width="17" height="17" viewBox="0 0 17 17" fill="none" xmlns="http://www.w3.org/2000/svg">
    <path
        d="M6.64062 2.72266L6.3418 3.28711L5.71094 3.12109C4.98047 2.88867 4.18359 3.05469 3.61914 3.61914C3.02148 4.18359 2.85547 5.01367 3.08789 5.71094L3.28711 6.3418L2.68945 6.67383C2.02539 7.00586 1.59375 7.70312 1.59375 8.5C1.59375 9.33008 2.02539 10.0273 2.68945 10.3594L3.28711 10.6582L3.08789 11.2891C2.85547 12.0195 3.02148 12.8164 3.58594 13.3809C4.15039 13.9785 4.98047 14.1445 5.71094 13.9121L6.3418 13.7129L6.64062 14.3105C6.97266 14.9746 7.66992 15.4062 8.4668 15.4062C9.29688 15.4062 9.99414 14.9746 10.3262 14.3105L10.625 13.7129L11.2559 13.9121C11.9863 14.1445 12.7832 13.9785 13.3809 13.4141C13.9453 12.8496 14.1113 12.0195 13.8789 11.2891L13.6797 10.6582L14.2773 10.3594C14.9414 10.0273 15.4062 9.33008 15.4062 8.5332C15.4062 7.70312 14.9414 7.00586 14.2773 6.67383L13.7129 6.375L13.8789 5.74414C14.1113 5.01367 13.9453 4.2168 13.3809 3.61914C12.8164 3.05469 11.9863 2.88867 11.2891 3.12109L10.6582 3.32031L10.3262 2.72266C9.99414 2.05859 9.29688 1.59375 8.5 1.59375C7.66992 1.59375 6.97266 2.05859 6.64062 2.72266ZM8.5 0C9.66211 0 10.7246 0.564453 11.4219 1.46094C12.5176 1.29492 13.6465 1.66016 14.5098 2.49023C15.3398 3.35352 15.6719 4.48242 15.5391 5.57812C16.4355 6.27539 17 7.33789 17 8.5C17 9.69531 16.4355 10.7578 15.5391 11.4219C15.7051 12.5176 15.3398 13.6797 14.5098 14.5098C13.6465 15.373 12.5176 15.7051 11.4219 15.5723C10.7246 16.4355 9.66211 17 8.5 17C7.30469 17 6.24219 16.4355 5.57812 15.5723C4.48242 15.7051 3.32031 15.373 2.49023 14.543C1.62695 13.6797 1.29492 12.5508 1.42773 11.4551C0.564453 10.7578 0 9.69531 0 8.5C0 7.33789 0.564453 6.27539 1.42773 5.57812C1.29492 4.48242 1.62695 3.35352 2.45703 2.49023C3.32031 1.66016 4.44922 1.32812 5.54492 1.46094C6.24219 0.564453 7.30469 0 8.5 0ZM12.252 6.93945L8.00195 11.1895L7.4375 11.7539L6.87305 11.1895L4.74805 9.06445L4.18359 8.5L5.3125 7.4043L5.87695 7.96875L7.4375 9.5293L11.123 5.84375L11.6875 5.2793L12.8164 6.375L12.252 6.93945Z"
        fill="#6D6D6D" />
</svg>