<svg width="32" height="32" viewBox="0 0 32 32" fill="none" xmlns="http://www.w3.org/2000/svg">
<path d="M25.5 24.1C27.5 21.7 28.8 18.7 28.8 15.3C28.8 7.9 22.8 1.8 15.3 1.8C7.90005 1.8 1.80005 7.8 1.80005 15.3C1.80005 22.7 7.80005 28.8 15.3 28.8C18.7 28.8 21.8001 27.6 24.1 25.5L28.8 30.2L30.2001 28.8L25.5 24.1ZM15.3 3.8C21.3 3.8 26.3 8.5 26.8 14.4H21.6L17 5.9L11.8 18.3L9.60005 14.4H3.80005C4.30005 8.4 9.30005 3.8 15.3 3.8ZM15.3 26.8C9.30005 26.8 4.40005 22.2 3.80005 16.3H8.40005L12 22.8L17.2 10.5L20.4 16.4H26.8C26.2 22.2 21.3 26.8 15.3 26.8Z" fill="#006DFF"/>
</svg>
