<?xml version="1.0" encoding="UTF-8"?>
<svg id="Layer_1" xmlns="http://www.w3.org/2000/svg" version="1.1" viewBox="0 0 32 32">
  <!-- Generator: Adobe Illustrator 29.7.1, SVG Export Plug-In . SVG Version: 2.1.1 Build 8)  -->
  <path d="M22.5,6c-.6,0-.6-.9,0-1,1.8-.3,3.3-1.7,3.5-3.5,0-.6.9-.6,1,0,.3,1.8,1.7,3.3,3.5,3.5.6,0,.6.9,0,1-1.8.3-3.3,1.7-3.5,3.5,0,.6-.9.6-1,0-.3-1.8-1.7-3.3-3.5-3.5Z" fill="#006dff"/>
  <g>
    <path d="M16,5.9l8.5,3.4v5.5c0,3.9-2,7.4-5.3,9.4l-3.2,1.9-3.2-1.9c-3.3-2-5.3-5.6-5.3-9.4v-5.5l8.5-3.4ZM9.5,10.7v4.2c0,3.2,1.7,6.1,4.4,7.7l2.1,1.3,2.1-1.3c2.7-1.6,4.4-4.6,4.4-7.7v-4.2l-6.5-2.6-6.5,2.6Z" fill="#006dff" fill-rule="evenodd"/>
    <path d="M15.1,10.5v6.9h1.8v-6.9h-1.8Z" fill="#006dff"/>
    <path d="M16,18.8c.6,0,1.1.5,1.1,1.1s-.5,1.1-1.1,1.1-1.1-.5-1.1-1.1.5-1.1,1.1-1.1Z" fill="#006dff"/>
    <path d="M28,11.9v11.1c0,2.8-2.2,5-5,5h-14c-2.8,0-5-2.2-5-5v-14c0-2.8,2.2-5,5-5h11.1v-2h-11.1c-3.9,0-7,3.1-7,7v14c0,3.9,3.1,7,7,7h14c3.9,0,7-3.1,7-7v-11.1h-2Z" fill="#006dff" fill-rule="evenodd"/>
  </g>
</svg>