<svg width="96" height="96" viewBox="0 0 96 96" fill="none" xmlns="http://www.w3.org/2000/svg">
<path d="M82.2 57.8999C79.8 57.8999 77.4 58.8 75.6 60.6L64.8 54.6C65.7 52.5 66 50.4 66 48.3C66 42.9 63.6 37.8 59.7 34.5L65.7 23.7C66.3 23.7 66.9 24 67.8 24C73.2 24 77.7 19.5 77.7 14.1C77.7 8.69995 73.2 4.19995 67.8 4.19995C62.4 4.19995 57.9 8.69995 57.9 14.1C57.9 16.5 58.8 18.9 60.6 20.7L54.6 31.5C52.5 30.3 50.1 30 48 30C42.3 30 37.5 32.7 34.2 36.6L23.4 30.3C23.4 29.7 23.7 28.7999 23.7 28.1999C23.7 22.7999 19.2 18.3 13.8 18.3C8.39995 18.3 4.19995 22.7999 4.19995 28.1999C4.19995 33.5999 8.69995 38.1 14.1 38.1C16.5 38.1 18.9 37.2 20.7 35.7L31.5 42C30.3 43.8 30 45.9 30 48C30 53.4 32.4 58.5 36.3 61.8L30.3 72.6C29.7 72.6 29.1 72.3 28.2 72.3C22.8 72.3 18.3 76.7999 18.3 82.2C18.3 87.6 22.8 92.1 28.2 92.1C33.6 92.1 38.1 87.6 38.1 82.2C38.1 79.7999 37.2 77.4 35.4 75.6L41.4 64.8C43.5 65.7 45.6 66 47.7 66C53.1 66 58.2 63.5999 61.5 59.3999L72.3 65.3999C72.3 66 72 66.6 72 67.5C72 72.9 76.5 77.3999 81.9 77.3999C87.3 77.3999 91.8 72.9 91.8 67.5C91.8 62.1 87.6 57.8999 82.2 57.8999ZM67.8 10.2C69.9 10.2 71.7 12 71.7 14.1C71.7 16.2 69.9 18 67.8 18C65.7 18 63.9 16.2 63.9 14.1C63.9 12 65.7 10.2 67.8 10.2ZM13.8 32.1C11.7 32.1 9.89995 30.2999 9.89995 28.1999C9.89995 26.0999 11.7 24.3 13.8 24.3C15.9 24.3 17.7 26.0999 17.7 28.1999C17.7 30.2999 15.9 32.1 13.8 32.1ZM28.2 85.8C26.1 85.8 24.3 83.9999 24.3 81.8999C24.3 79.7999 26.1 78 28.2 78C30.3 78 32.1 79.7999 32.1 81.8999C32.1 83.9999 30.3 85.8 28.2 85.8ZM48 60C41.4 60 36 54.6 36 48C36 41.4 41.4 36 48 36C54.6 36 60 41.4 60 48C60 54.6 54.6 60 48 60ZM82.2 71.3999C80.1 71.3999 78.3 69.6 78.3 67.5C78.3 65.4 80.1 63.6 82.2 63.6C84.3 63.6 86.1 65.4 86.1 67.5C86.1 69.6 84.3 71.3999 82.2 71.3999Z" fill="white"/>
</svg>
