<svg width="63" height="64" viewBox="0 0 63 64" fill="none" xmlns="http://www.w3.org/2000/svg">
<g clip-path="url(#clip0_161_34)">
<path d="M4.24242 37.3334L0 38.1867C0.212121 39.4667 0.636364 40.96 1.06061 42.24L5.09091 40.96C4.66667 39.8934 4.45455 38.6134 4.24242 37.5467V37.3334Z" fill="#006DFF"/>
<path d="M6.57576 44.3733L2.75758 46.2933C3.39394 47.5733 4.0303 48.8533 4.87879 49.92L8.48485 47.5733C7.84849 46.5066 7.21212 45.44 6.57576 44.3733Z" fill="#006DFF"/>
<path d="M53.6667 9.38665C41.3636 -3.20001 21.2121 -3.20001 8.69697 9.38665L7.21212 10.88L20.5758 24.32C20.1515 25.6 19.9394 26.88 19.9394 28.5867C19.9394 33.7067 21.2121 37.76 24.1818 40.7467V41.8133C24.1818 42.0267 24.1818 42.4533 23.7576 42.4533L21.4242 43.0933C18.6667 43.9467 16.5455 46.08 15.9091 48.8533C17.1818 49.92 18.4545 50.9866 19.9394 51.84V50.7733C19.9394 49.0667 21 47.5733 22.697 47.1467L25.0303 46.5066C26.7273 46.08 27.7879 44.8 28.4242 43.3067C29.4848 43.52 30.3333 43.7333 31.3939 43.7333C32.4545 43.7333 33.5152 43.7333 34.3636 43.3067C34.7879 44.8 36.0606 46.08 37.7576 46.5066L40.0909 47.1467C41.7879 47.5733 42.8485 49.0667 42.8485 50.7733V52.6933C44.3333 51.84 45.8182 50.9867 47.0909 49.92C46.6667 46.72 44.5455 43.9467 41.3636 43.0933L39.0303 42.4533C38.8182 42.4533 38.6061 42.0267 38.6061 41.8133V40.7467C41.5758 37.9733 42.8485 33.7067 42.8485 28.5867C42.8485 23.4667 40.9394 20.6933 38.3939 18.7733C36.0606 16.8533 33.303 16.4267 31.6061 16.4267C29.9091 16.4267 27.1515 17.0667 24.8182 18.7733C24.1818 19.2 23.7576 19.84 23.1212 20.2667L19.9394 17.0667C20.7879 16.2133 21.8485 15.5733 22.697 14.9333L20.5758 11.3067C19.303 12.16 18.0303 13.0133 16.9697 14.08L13.5758 10.6667C24.1818 1.49332 40.5152 2.13332 50.697 12.3733C61.5152 23.2533 61.5152 40.7467 50.697 51.6267C39.8788 62.5067 22.4848 62.5067 11.6667 51.6267C11.2424 51.2 10.8182 50.7733 10.3939 50.3467L7.21212 53.12C7.63636 53.5466 8.0606 54.1867 8.69697 54.6133C21.2121 67.2 41.3636 67.2 53.6667 54.6133C66.1818 42.0267 66.1818 21.76 53.6667 9.38665ZM26.9394 22.1867C28.4242 20.9067 30.3333 20.6933 31.1818 20.6933C32.0303 20.6933 33.9394 21.12 35.4242 22.1867C36.9091 23.2533 38.1818 25.1733 38.1818 28.5867C38.1818 33.4933 36.697 36.48 34.3636 38.1867V38.4C34.1515 38.6133 33.303 39.04 31.1818 39.04C29.0606 39.04 28.4242 38.6133 28 38.4V38.1867C25.6667 36.48 24.1818 33.4933 24.1818 28.5867C24.1818 23.68 25.4545 23.4667 26.9394 22.1867Z" fill="#006DFF"/>
<path d="M25.8788 13.6533C27.1515 13.2267 28.2121 13.0133 29.4848 12.8L29.0606 8.53333C27.5758 8.53333 25.8788 8.95999 24.3939 9.59999L25.6667 13.6533H25.8788Z" fill="#006DFF"/>
<path d="M36.9091 13.6533L38.3939 9.59999C36.9091 9.17333 35.4242 8.74666 33.7273 8.53333L33.303 12.8C34.5758 12.8 35.8485 13.2267 36.9091 13.6533Z" fill="#006DFF"/>
<path d="M43.2727 17.7066L46.2424 14.7199C45.1818 13.6533 43.9091 12.5866 42.6364 11.7333L40.303 15.3599C41.3636 15.9999 42.4242 16.8533 43.2727 17.7066Z" fill="#006DFF"/>
</g>
<defs>
<clipPath id="clip0_161_34">
<rect width="63" height="64" fill="white"/>
</clipPath>
</defs>
</svg>
