<svg width="138" height="48" viewBox="0 0 138 48" fill="none" xmlns="http://www.w3.org/2000/svg">
<path d="M48.1557 24C48.1557 10.7107 37.4102 0 24.0779 0C10.7455 0 0 10.7107 0 24C0 37.2893 10.7455 48 24.0779 48C37.4102 48 48.1557 37.2893 48.1557 24Z" fill="#FF1C22"/>
<path d="M29.7491 23.3059C32.5349 22.4134 34.3258 20.4299 34.3258 17.4547C34.3258 12.5952 30.147 10.8101 26.1672 10.8101H12.6359V11.2068L14.0288 12.3968C15.6207 13.6861 15.9192 13.9836 15.9192 15.1737V37.2894H25.4708C30.4455 37.2894 35.5198 35.5043 35.5198 29.7522C35.5198 24.0001 33.1319 23.7026 29.7491 23.4051M20.5955 14.777H24.4758C27.1622 14.777 27.9581 15.1737 28.7541 15.8679C29.3511 16.463 29.6496 17.2563 29.6496 18.1489C29.6496 19.0415 29.3511 19.7357 28.7541 20.3307C27.9581 21.1241 26.8637 21.4216 24.9733 21.4216H20.695V14.6778L20.5955 14.777ZM24.9733 33.2233H20.5955V25.5869H25.1723C28.9531 25.5869 30.8435 26.5787 30.8435 29.3555C30.8435 32.1324 27.4607 33.2233 25.0728 33.2233" fill="white"/>
<path d="M63.5775 21.5208H66.2638V9.61996H70.3432V7.14062H59.4982V9.61996H63.5775V21.5208Z" fill="white"/>
<path d="M76.8104 13.2894H77.6063V10.8101H77.0094C75.318 10.8101 74.4225 11.901 74.124 12.9919H74.0245V10.8101H71.3381V21.5208H74.0245V14.9753C74.0245 13.7853 74.92 13.2894 76.7109 13.2894H76.8104Z" fill="white"/>
<path d="M82.8796 21.7192C84.6705 21.7192 85.5659 20.7275 85.8644 19.7357H85.9639V21.5209H88.6503V10.8101H85.9639V17.8514C85.9639 19.0415 84.8695 19.5374 83.8745 19.5374C82.8796 19.5374 82.0836 18.744 82.0836 17.2564V10.7109H79.3972V17.4547C79.3972 20.1324 80.5912 21.62 82.8796 21.62V21.7192Z" fill="white"/>
<path d="M99.6943 18.2477C99.6943 16.4626 98.5999 15.3717 96.212 15.0742H95.1175C94.1226 14.7767 93.7246 14.4791 93.7246 13.6858C93.7246 12.8924 94.2221 12.5949 95.3165 12.5949C96.411 12.5949 97.3064 13.0907 97.9034 13.7849L99.4953 12.1982C98.5004 11.1072 97.4059 10.5122 95.3165 10.5122C93.2271 10.5122 91.2372 11.8015 91.2372 13.8841C91.2372 15.9668 92.5307 16.8593 94.819 17.1568H95.9135C96.9084 17.4544 97.2069 17.8511 97.2069 18.4461C97.2069 19.0411 96.7095 19.6362 95.416 19.6362C94.1226 19.6362 93.2271 19.0411 92.4312 18.1486L90.8392 19.7353C91.9337 20.9254 93.2271 21.7188 95.3165 21.7188C97.4059 21.7188 99.7938 20.3304 99.7938 18.2477H99.6943Z" fill="white"/>
<path d="M102.381 18.7436C102.381 20.5287 103.376 21.5204 105.167 21.5204H107.057V19.4378H105.067V12.8923H107.256V10.8097H105.067V7.83447H102.679V9.6196C102.679 10.3138 102.48 10.7105 101.684 10.7105H100.888V12.7932H102.48V18.6444L102.381 18.7436Z" fill="white"/>
<path d="M116.808 18.1486C116.111 18.942 115.415 19.6362 114.022 19.6362C112.629 19.6362 111.435 18.5453 111.435 17.0577V16.7601H118.598V15.8676C118.598 12.8924 117.007 10.5122 113.723 10.5122C110.44 10.5122 108.748 12.694 108.748 16.0659C108.748 19.4378 110.639 21.7188 113.823 21.7188C117.007 21.7188 117.405 20.9254 118.3 19.7353L116.907 18.1486H116.808ZM111.534 14.975C111.534 13.4874 112.43 12.4957 113.823 12.4957C115.216 12.4957 115.912 13.4874 115.912 14.975V15.1734H111.534V14.975Z" fill="white"/>
<path d="M130.239 21.5207V6.34717H127.553V12.5951H127.453C127.055 11.405 125.862 10.6116 124.469 10.6116C121.782 10.6116 120.29 12.5951 120.29 16.1653C120.29 19.7356 121.782 21.8182 124.469 21.8182C127.155 21.8182 127.055 21.0249 127.453 19.8348H127.553V21.6199H130.239V21.5207ZM125.464 19.5372C124.071 19.5372 123.175 18.5455 123.175 17.0579V15.1736C123.175 13.686 124.071 12.6943 125.464 12.6943C126.856 12.6943 127.652 13.3885 127.652 14.3802V17.7521C127.652 18.843 126.657 19.5372 125.464 19.5372Z" fill="white"/>
<path d="M134.916 18.3472C133.821 18.3472 133.224 18.9422 133.224 19.8348V20.2315C133.224 21.124 133.722 21.7191 134.916 21.7191C136.11 21.7191 136.607 21.124 136.607 20.2315V19.8348C136.607 18.9422 136.11 18.3472 134.916 18.3472Z" fill="white"/>
<path d="M64.1745 26.5786L59.3987 40.9588H62.1845L63.279 37.2894H68.3533L69.5472 40.9588H72.3331L67.5573 26.5786H64.1745ZM63.9755 34.9092L65.7664 29.058H65.8659L67.7563 34.9092H63.9755Z" fill="white"/>
<path d="M76.9099 25.686H74.2235V38.2811C74.2235 39.967 75.0195 40.8596 76.9099 40.8596H78.3028V38.7769H76.9099V25.686Z" fill="white"/>
<path d="M91.6351 34.6117L90.8392 38.2811H90.7397L89.7447 34.6117L88.4513 30.248H86.0634L84.77 34.6117L83.775 38.2811L82.8796 34.6117L81.7851 30.248H79.2977L82.1831 40.9588H85.0685L86.3619 36.1985L87.1579 33.3224H87.2574L88.0533 36.1985L89.4463 40.9588H92.2321L95.217 30.248H92.7296L91.6351 34.6117Z" fill="white"/>
<path d="M105.266 33.818C105.266 31.3386 103.674 29.9502 100.789 29.9502C97.9034 29.9502 97.406 30.7436 96.61 32.0328L98.2019 33.4213C98.6994 32.7271 99.3959 32.0328 100.689 32.0328C101.983 32.0328 102.679 32.7271 102.679 33.9171V34.7105H100.888C98.0029 34.7105 96.3115 35.8014 96.3115 37.9833C96.3115 40.1651 97.5055 41.1568 99.6944 41.1568C101.883 41.1568 102.48 40.4626 102.779 39.0742H102.878C103.077 40.1651 103.774 40.9585 104.868 40.9585H106.361V38.8758H105.266V33.818ZM102.58 37.6857C102.58 38.6775 101.585 39.2725 100.49 39.2725C99.3959 39.2725 98.8984 38.8758 98.8984 37.9833V37.5866C98.8984 36.7932 99.5949 36.2973 100.988 36.2973H102.679V37.6857H102.58Z" fill="white"/>
<path d="M113.027 35.9009L112.33 38.5786H112.231L111.534 35.9009L109.644 30.248H107.057L110.937 41.4547L110.44 42.9423H108.549V45.0249H110.141C111.932 45.0249 112.629 44.3307 113.226 42.8431L117.504 30.248H115.017L113.126 35.9009H113.027Z" fill="white"/>
<path d="M123.374 34.5122H122.28C121.285 34.2147 120.887 33.9171 120.887 33.1238C120.887 32.3304 121.384 32.0328 122.479 32.0328C123.573 32.0328 124.469 32.5287 125.066 33.2229L126.658 31.6361C125.663 30.5452 124.568 29.9502 122.479 29.9502C120.389 29.9502 118.399 31.2394 118.399 33.3221C118.399 35.4047 119.693 36.2973 121.981 36.5948H123.076C124.071 36.8923 124.369 37.289 124.369 37.8841C124.369 38.4791 123.872 39.0742 122.578 39.0742C121.285 39.0742 120.389 38.4791 119.593 37.5866L118.001 39.1733C119.096 40.3634 120.389 41.1568 122.479 41.1568C124.568 41.1568 126.956 39.7684 126.956 37.6857C126.956 35.6031 125.862 34.8097 123.474 34.5122H123.374Z" fill="white"/>
<path d="M130.637 37.7852C129.543 37.7852 128.946 38.3802 128.946 39.2728V39.6695C128.946 40.562 129.443 41.1571 130.637 41.1571C131.831 41.1571 132.329 40.562 132.329 39.6695V39.2728C132.329 38.3802 131.831 37.7852 130.637 37.7852Z" fill="white"/>
</svg>
