<svg width="32" height="32" viewBox="0 0 32 32" fill="none" xmlns="http://www.w3.org/2000/svg">
<path fill-rule="evenodd" clip-rule="evenodd" d="M9.59461 1.38103C8.36138 2.09304 7.93884 3.66998 8.65085 4.90321C9.18565 5.82953 10.2084 6.29846 11.207 6.17276C12.2966 8.01183 14.0634 9.35286 16.1306 9.90675L17.3681 10.2383C18.1603 10.4506 18.8357 10.9689 19.2458 11.6792C20.0998 13.1582 19.593 15.0495 18.1139 15.9035L17.785 16.0934C16.1243 17.0522 14.0007 16.4832 13.0419 14.8225L12.9104 14.5946L11.1783 15.5946L11.3099 15.8225C12.821 18.4398 16.1677 19.3365 18.785 17.8254L19.1139 17.6355C21.5496 16.2293 22.3841 13.1148 20.9779 10.6792C20.3026 9.50953 19.1903 8.65605 17.8857 8.30649L16.6482 7.9749C15.0933 7.55825 13.7632 6.5522 12.939 5.17224C13.5464 4.37036 13.6514 3.25071 13.1168 2.3248C12.4048 1.09156 10.8279 0.669019 9.59461 1.38103ZM10.3829 3.90321C10.2232 3.62656 10.318 3.27281 10.5946 3.11308C10.8713 2.95335 11.225 3.04814 11.3847 3.3248C11.5445 3.60145 11.4497 3.9552 11.173 4.11493C10.8964 4.27466 10.5426 4.17987 10.3829 3.90321Z" fill="white"/>
<path d="M6 5.00022C3.79086 5.00022 2 6.79108 2 9.00022V21.0002C2 23.2094 3.79086 25.0002 6 25.0002H8.46482L12 30.303L15.5352 25.0002L26 25.0002C28.2091 25.0002 30 23.2094 30 21.0002L30 9.00022C30 6.79109 28.2091 5.00022 26 5.00022L19.2 5.00022V7.00022L26 7.00022C27.1046 7.00022 28 7.89566 28 9.00022L28 21.0002C28 22.1048 27.1046 23.0002 26 23.0002L14.4648 23.0002L12 26.6974L9.53518 23.0002L6 23.0002C4.89543 23.0002 4 22.1048 4 21.0002L4 9.00022C4 7.89565 4.89543 7.00022 6 7.00022L6 5.00022Z" fill="white"/>
</svg>
