<svg width="32" height="32" viewBox="0 0 32 32" fill="none" xmlns="http://www.w3.org/2000/svg">
<path fill-rule="evenodd" clip-rule="evenodd" d="M9.59461 1.38082C8.36138 2.09283 7.93884 3.66976 8.65085 4.903C9.18565 5.82931 10.2084 6.29824 11.207 6.17255C12.2966 8.01161 14.0634 9.35265 16.1306 9.90654L17.3681 10.2381C18.1603 10.4504 18.8357 10.9687 19.2458 11.679C20.0998 13.158 19.593 15.0493 18.1139 15.9033L17.785 16.0932C16.1243 17.052 14.0007 16.483 13.0419 14.8222L12.9104 14.5944L11.1783 15.5944L11.3099 15.8222C12.821 18.4396 16.1677 19.3363 18.785 17.8252L19.1139 17.6353C21.5496 16.2291 22.3841 13.1146 20.9779 10.679C20.3026 9.50931 19.1903 8.65584 17.8857 8.30628L16.6482 7.97469C15.0933 7.55804 13.7632 6.55199 12.939 5.17203C13.5464 4.37015 13.6514 3.2505 13.1168 2.32458C12.4048 1.09134 10.8279 0.668805 9.59461 1.38082ZM10.3829 3.903C10.2232 3.62635 10.318 3.27259 10.5946 3.11287C10.8713 2.95314 11.225 3.04793 11.3847 3.32458C11.5445 3.60124 11.4497 3.95499 11.173 4.11472C10.8964 4.27444 10.5426 4.17965 10.3829 3.903Z" fill="#006DFF"/>
<path d="M6 5.00001C3.79086 5.00001 2 6.79087 2 9.00001V21C2 23.2091 3.79086 25 6 25H8.46482L12 30.3028L15.5352 25L26 25C28.2091 25 30 23.2092 30 21L30 9.00001C30 6.79087 28.2091 5.00001 26 5.00001L19.2 5.00001V7.00001L26 7.00001C27.1046 7.00001 28 7.89544 28 9.00001L28 21C28 22.1046 27.1046 23 26 23L14.4648 23L12 26.6972L9.53518 23L6 23C4.89543 23 4 22.1046 4 21L4 9.00001C4 7.89544 4.89543 7.00001 6 7.00001L6 5.00001Z" fill="#006DFF"/>
</svg>
