<?xml version="1.0" encoding="UTF-8"?>
<svg id="Layer_1" xmlns="http://www.w3.org/2000/svg" version="1.1" viewBox="0 0 32 32">
  <!-- Generator: Adobe Illustrator 29.7.1, SVG Export Plug-In . SVG Version: 2.1.1 Build 8)  -->
  <path d="M16.1,12.1h0c-1.4,0-2.5-1.1-2.5-2.5v-.5h-2v.5c0,2.5,2,4.5,4.5,4.5h0c2.4,0,4.4-2,4.4-4.4s-.6-2.5-1.5-3.4l-.6-.5c-.9-.8-1.4-1.9-1.4-3v-1.7h-2v1.7c0,1.8.8,3.4,2.1,4.6l.6.5c.5.5.8,1.1.8,1.8,0,1.3-1.1,2.4-2.4,2.4Z" fill="#006dff" fill-rule="evenodd"/>
  <path d="M26,25.2v-5.2h-9v-2h5.5c1.1,0,2-.9,2-2V7.1c0-1.1-.9-2-2-2h-2v2h2v9h-13V7.1h4v-2h-4c-1.1,0-2,.9-2,2v9c0,1.1.9,2,2,2h5.5v2H6v5.2c-1.2.4-2,1.5-2,2.8s1.3,3,3,3,3-1.3,3-3-.8-2.4-2-2.8v-3.2h7v3.2c-1.2.4-2,1.5-2,2.8s1.3,3,3,3,3-1.3,3-3-.8-2.4-2-2.8v-3.2h7v3.2c-1.2.4-2,1.5-2,2.8s1.3,3,3,3,3-1.3,3-3-.8-2.4-2-2.8ZM7,29.1c-.6,0-1-.4-1-1s.4-1,1-1,1,.4,1,1-.4,1-1,1ZM16,29.1c-.6,0-1-.4-1-1s.4-1,1-1,1,.4,1,1-.4,1-1,1ZM25,29.1c-.6,0-1-.4-1-1s.4-1,1-1,1,.4,1,1-.4,1-1,1Z" fill="#006dff" fill-rule="evenodd"/>
</svg>