<?xml version="1.0" encoding="UTF-8"?>
<svg id="Layer_1" xmlns="http://www.w3.org/2000/svg" version="1.1" viewBox="0 0 32 32">
  <!-- Generator: Adobe Illustrator 29.7.1, SVG Export Plug-In . SVG Version: 2.1.1 Build 8)  -->
  <path d="M16,2.8l13,6.5v8.1h-2v-4.4l-11,5.5-11-5.5v13.4h12.5v2H5c-1.1,0-2-.9-2-2V9.3L16,2.8ZM5,10.8l11,5.5,11-5.5v-.3l-11-5.5-11,5.5v.3Z" fill="#006dff" fill-rule="evenodd"/>
  <path d="M20.8,20.7c2.3-2.3,6.1-2.3,8.5,0,2.3,2.3,2.3,6.1,0,8.5-2.3,2.3-6.1,2.3-8.5,0-2.3-2.3-2.3-6.1,0-8.5ZM27,21.5c-1.5-.9-3.5-.7-4.9.6-1.3,1.3-1.5,3.3-.6,4.9l5.5-5.5ZM28.4,22.9l-5.5,5.5c1.5.9,3.5.7,4.9-.6,1.3-1.3,1.5-3.3.6-4.9Z" fill="#006dff" fill-rule="evenodd"/>
</svg>