<svg width="32" height="32" viewBox="0 0 32 32" fill="none" xmlns="http://www.w3.org/2000/svg">
<path fill-rule="evenodd" clip-rule="evenodd" d="M15 1.88184L28 8.38184V16.4999H26V12.1177L14.9999 17.6177L4 12.1177V25.4999H16.5V27.4999H4C2.89543 27.4999 2 26.6044 2 25.4999V8.38184L15 1.88184ZM4 9.88164L14.9999 15.3816L26 9.88159V9.6179L15 4.1179L4 9.6179V9.88164Z" fill="white"/>
<path fill-rule="evenodd" clip-rule="evenodd" d="M19.7574 19.757C22.1005 17.4139 25.8995 17.4139 28.2426 19.757C30.5858 22.1002 30.5858 25.8992 28.2426 28.2423C25.8995 30.5855 22.1005 30.5855 19.7574 28.2423C17.4142 25.8992 17.4142 22.1002 19.7574 19.757ZM26.0322 20.5533C24.4983 19.6473 22.4895 19.8533 21.1716 21.1713C19.8536 22.4892 19.6476 24.498 20.5536 26.0319L26.0322 20.5533ZM27.4464 21.9675L21.9678 27.4461C23.5017 28.352 25.5105 28.146 26.8284 26.8281C28.1464 25.5102 28.3524 23.5014 27.4464 21.9675Z" fill="white"/>
</svg>
