<svg width="28" height="28" viewBox="0 0 28 28" fill="none" xmlns="http://www.w3.org/2000/svg">
<path fill-rule="evenodd" clip-rule="evenodd" d="M22 14C22 12.3431 23.3431 11 25 11C26.6569 11 28 12.3431 28 14C28 15.6569 26.6569 17 25 17C23.3431 17 22 15.6569 22 14ZM25 13C24.4477 13 24 13.4477 24 14C24 14.5523 24.4477 15 25 15C25.5523 15 26 14.5523 26 14C26 13.4477 25.5523 13 25 13Z" fill="#006DFF"/>
<path fill-rule="evenodd" clip-rule="evenodd" d="M11 14C11 12.3431 12.3431 11 14 11C15.6569 11 17 12.3431 17 14C17 15.6569 15.6569 17 14 17C12.3431 17 11 15.6569 11 14ZM14 13C13.4477 13 13 13.4477 13 14C13 14.5523 13.4477 15 14 15C14.5523 15 15 14.5523 15 14C15 13.4477 14.5523 13 14 13Z" fill="#006DFF"/>
<path fill-rule="evenodd" clip-rule="evenodd" d="M11 3C11 1.34315 12.3431 0 14 0C15.6569 0 17 1.34315 17 3C17 4.65685 15.6569 6 14 6C12.3431 6 11 4.65685 11 3ZM14 2C13.4477 2 13 2.44772 13 3C13 3.55228 13.4477 4 14 4C14.5523 4 15 3.55228 15 3C15 2.44772 14.5523 2 14 2Z" fill="#006DFF"/>
<path fill-rule="evenodd" clip-rule="evenodd" d="M11 25C11 23.3431 12.3431 22 14 22C15.6569 22 17 23.3431 17 25C17 26.6569 15.6569 28 14 28C12.3431 28 11 26.6569 11 25ZM14 24C13.4477 24 13 24.4477 13 25C13 25.5523 13.4477 26 14 26C14.5523 26 15 25.5523 15 25C15 24.4477 14.5523 24 14 24Z" fill="#006DFF"/>
<path fill-rule="evenodd" clip-rule="evenodd" d="M0 9C0 7.34315 1.34315 6 3 6C4.65685 6 6 7.34315 6 9C6 10.6569 4.65685 12 3 12C1.34315 12 0 10.6569 0 9ZM3 8C2.44772 8 2 8.44772 2 9C2 9.55228 2.44772 10 3 10C3.55228 10 4 9.55228 4 9C4 8.44772 3.55228 8 3 8Z" fill="#006DFF"/>
<path fill-rule="evenodd" clip-rule="evenodd" d="M0 19C0 17.3431 1.34315 16 3 16C4.65685 16 6 17.3431 6 19C6 20.6569 4.65685 22 3 22C1.34315 22 0 20.6569 0 19ZM3 18C2.44772 18 2 18.4477 2 19C2 19.5523 2.44772 20 3 20C3.55228 20 4 19.5523 4 19C4 18.4477 3.55228 18 3 18Z" fill="#006DFF"/>
<line x1="4.73666" y1="18.2978" x2="12.7367" y2="15.2978" stroke="#006DFF" stroke-width="1.5"/>
<path d="M4.50393 8.13171L11.5039 4.13171M5.39399 10.0808L8.38026 11.3606M8.38026 11.3606L12.394 13.0808M8.38026 11.3606L6.42315 14.1876M8.38026 11.3606L13.1779 4.43075M12.4701 24.848L4.47007 19.848M3.82227 10.4307L6.42315 14.1876M6.42315 14.1876L12.8223 23.4307M6.42315 14.1876L4.17788 17.4307M14.6644 4.25255L23.6644 12.2525M15.293 24.2929L24.293 15.2929M16.0001 14L23.0001 14" stroke="#006DFF" stroke-width="1.5"/>
</svg>
