<svg width="32" height="32" viewBox="0 0 32 32" fill="none" xmlns="http://www.w3.org/2000/svg">
<path d="M22.2205 6.17456C21.6335 6.0907 21.6335 5.2431 22.2205 5.15923C24.0256 4.90137 25.4438 3.48313 25.7017 1.67809C25.7855 1.09103 26.6331 1.09103 26.717 1.67809C26.9749 3.48313 28.3931 4.90137 30.1981 5.15923C30.7852 5.2431 30.7852 6.0907 30.1981 6.17456C28.3931 6.43243 26.9749 7.85067 26.717 9.65571C26.6331 10.2428 25.7855 10.2428 25.7017 9.65571C25.4438 7.85067 24.0256 6.43243 22.2205 6.17456Z" fill="#006DFF"/>
<path d="M6.6669 5.00146C5.74643 5.00146 5.00024 5.74766 5.00024 6.66813V21.3348C5.00024 22.2553 5.74643 23.0015 6.6669 23.0015H12.4601L16.0002 27.1315L19.5403 23.0015H25.3335C26.254 23.0015 27.0002 22.2553 27.0002 21.3348V12.0015H29.0002V21.3348C29.0002 23.3598 27.3586 25.0015 25.3335 25.0015H20.4601L16.0002 30.2047L11.5403 25.0015H6.6669C4.64186 25.0015 3.00024 23.3598 3.00024 21.3348V6.66813C3.00024 4.64309 4.64186 3.00146 6.6669 3.00146H20.0002V5.00146H6.6669Z" fill="#006DFF"/>
<path d="M15.3336 18.7491L23.3741 10.7086L21.9599 9.29443L15.3336 15.9207L12.0407 12.6278L10.6265 14.042L15.3336 18.7491Z" fill="#006DFF"/>
</svg>
