<svg width="32" height="32" viewBox="0 0 32 32" fill="none" xmlns="http://www.w3.org/2000/svg">
<path d="M17.6276 10.0208C17.8428 10.2418 17.9503 10.5391 17.9503 10.9127C17.9503 11.2727 17.8298 11.5586 17.5886 11.7705C17.3475 11.9824 17.0189 12.0883 16.6028 12.0883C16.1016 12.0883 15.7175 11.9437 15.4503 11.6543C15.1832 11.365 15.0496 10.9492 15.0496 10.4069H13C13 11.341 13.2659 12.0895 13.7979 12.6522C14.3298 13.215 15.0804 13.5464 16.0496 13.6467V15H17.1773V13.6399C18.0567 13.5533 18.747 13.2685 19.2482 12.7855C19.7494 12.3025 20 11.6737 20 10.8991C20 10.4844 19.9338 10.121 19.8014 9.80889C19.669 9.49676 19.4775 9.21881 19.2269 8.97503C18.9763 8.73125 18.669 8.51253 18.305 8.31887C17.9409 8.12522 17.4764 7.91903 16.9113 7.70032C16.3463 7.4816 15.9598 7.26744 15.7518 7.05783C15.5437 6.84823 15.4397 6.57028 15.4397 6.22397C15.4397 5.85033 15.5461 5.55757 15.7589 5.34569C15.9716 5.13381 16.2719 5.02787 16.6596 5.02787C17.052 5.02787 17.3652 5.16342 17.5993 5.43454C17.8333 5.70566 17.9503 6.11461 17.9503 6.66141H20C20 5.77287 19.7636 5.04951 19.2908 4.49132C18.818 3.93314 18.1631 3.59709 17.3262 3.48318V2H16.1915V3.46267C15.3451 3.54469 14.6667 3.83175 14.156 4.32387C13.6454 4.81599 13.3901 5.44707 13.3901 6.21714C13.3901 6.66369 13.4645 7.04872 13.6135 7.37224C13.7624 7.69576 13.9704 7.97713 14.2376 8.21635C14.5047 8.45557 14.825 8.66745 15.1986 8.852C15.5721 9.03654 16.0165 9.22222 16.5319 9.40904C17.0473 9.59587 17.4125 9.79977 17.6276 10.0208Z" fill="white"/>
<path d="M17.3497 17H5.79999C3.42517 17 1.49999 18.9252 1.49999 21.3L1.49999 23.0005H3.49999V21.3C3.49999 20.0297 4.52973 19 5.79999 19H17.3497C17.7088 19 18 19.2912 18 19.6503C18 19.9742 17.7616 20.2488 17.4409 20.2942L9.35972 21.4391L9.64025 23.4193L17.7214 22.2745C18.4173 22.1759 19.018 21.8126 19.4277 21.2953L26.0795 19.5934C26.872 19.3906 27.7253 19.2406 28.3599 19.296C28.6731 19.3233 28.8348 19.3934 28.9041 19.4432C28.9354 19.4657 28.9784 19.4965 28.9952 19.6448C28.9983 19.6722 29 19.7004 29 19.7294C29 20.0482 28.7928 20.33 28.4885 20.4251L28.4544 20.4357L15.9864 25.332C14.9661 25.6463 13.8998 25.7705 12.8402 25.7014C12.2343 25.6618 11.6152 25.4593 10.9493 25.163L6.81347 23.323L1.33102 28.2572L2.66895 29.7437L7.18651 25.6779L10.1363 26.9903C10.8928 27.3269 11.7622 27.6353 12.7099 27.6971C14.0259 27.783 15.3503 27.6262 16.616 27.2306L16.6501 27.22L29.1228 22.322C30.2414 21.9546 31 20.9097 31 19.7294C31 19.6247 30.9941 19.5211 30.9824 19.4188C30.9049 18.737 30.5833 18.1867 30.0705 17.8186C29.5958 17.4778 29.0337 17.3472 28.5337 17.3036C27.542 17.217 26.4112 17.4441 25.5838 17.6558L19.9426 19.0991C19.6889 17.8999 18.6244 17 17.3497 17Z" fill="white"/>
</svg>
