<svg width="32" height="32" viewBox="0 0 32 32" fill="none" xmlns="http://www.w3.org/2000/svg">
<path fill-rule="evenodd" clip-rule="evenodd" d="M7.05273 15.9187C7.05273 12.4152 7.58291 9.42067 8.93553 7.32633C10.2353 5.3138 12.3811 4 16.0001 4C19.6191 4 21.7649 5.3138 23.0647 7.32633C24.4029 9.39846 24.9361 12.3518 24.9473 15.8074V16.0725C24.9342 21.6662 24.2048 24.4491 23.01 25.8744C21.98 27.1033 20.439 27.5045 17.9224 27.5691C17.5589 26.8789 16.8345 26.4082 16.0002 26.4082C14.8011 26.4082 13.8291 27.3802 13.8291 28.5793C13.8291 29.7783 14.8011 30.7503 16.0002 30.7503C16.8422 30.7503 17.5723 30.2709 17.9324 29.5701C20.5858 29.5087 22.925 29.0892 24.5428 27.1592C25.6667 25.8184 26.3501 23.8497 26.6878 21.0527H27.5C29.1569 21.0527 30.5 19.7095 30.5 18.0527V13.5264C30.5 11.8695 29.1569 10.5264 27.5 10.5264H26.4372C26.0929 8.94536 25.5512 7.48994 24.7447 6.24126C23.0248 3.57814 20.1969 2 16.0001 2C11.8034 2 8.97542 3.57814 7.25546 6.24126C6.45029 7.48796 5.90905 8.94076 5.56462 10.5189L4.54444 10.5038C2.87039 10.479 1.5 11.8292 1.5 13.5034V18.0293C1.5 19.6688 2.81621 21.0047 4.45556 21.029L7.05271 21.0674L7.05273 15.9187ZM26.9473 19.0527V16.0768L26.9475 15.9187L26.9473 15.8039V12.5264H27.5C28.0523 12.5264 28.5 12.9741 28.5 13.5264V18.0527C28.5 18.605 28.0523 19.0527 27.5 19.0527H26.9473ZM3.5 13.5034C3.5 12.9453 3.95679 12.4953 4.51481 12.5035L5.05271 12.5115V19.0376L4.48519 19.0292C3.93874 19.0211 3.5 18.5758 3.5 18.0293V13.5034Z" fill="white"/>
<path d="M14.9999 6V15.382L10.4472 13.1056L9.55273 14.8944L16.9999 18.618V6H14.9999Z" fill="white"/>
</svg>
