<svg width="119" height="126" viewBox="0 0 119 126" fill="none" xmlns="http://www.w3.org/2000/svg">
<path d="M0.5 55.8712C0.5 52.0387 0.5 50.1224 0.98529 48.3577C1.41517 46.7946 2.12162 45.3243 3.06995 44.0192C4.14054 42.5459 5.62658 41.3694 8.59867 39.0165L53.0605 3.81734C55.3636 1.99401 56.5151 1.08235 57.7867 0.731909C58.9087 0.422697 60.0913 0.422697 61.2133 0.731909C62.4849 1.08235 63.6364 1.99401 65.9396 3.81734L110.401 39.0165C113.373 41.3694 114.859 42.5459 115.93 44.0192C116.878 45.3243 117.585 46.7946 118.015 48.3577C118.5 50.1224 118.5 52.0387 118.5 55.8712V104.147C118.5 111.622 118.5 115.359 117.071 118.213C115.814 120.724 113.808 122.766 111.341 124.045C108.537 125.5 104.865 125.5 97.5222 125.5H21.4778C14.1349 125.5 10.4634 125.5 7.65879 124.045C5.19178 122.766 3.18603 120.724 1.92903 118.213C0.5 115.359 0.5 111.622 0.5 104.147V55.8712Z" stroke="url(#paint0_linear_135_687)" stroke-opacity="0.55" stroke-linecap="round" stroke-linejoin="round"/>
<defs>
<linearGradient id="paint0_linear_135_687" x1="59.5" y1="-5.18182" x2="121.315" y2="142.116" gradientUnits="userSpaceOnUse">
<stop stop-color="#9EC8FF" stop-opacity="0.4"/>
<stop offset="0.4" stop-color="#9EC8FF" stop-opacity="0.01"/>
<stop offset="0.6" stop-color="#9EC8FF" stop-opacity="0.01"/>
<stop offset="1" stop-color="#9EC8FF" stop-opacity="0.1"/>
</linearGradient>
</defs>
</svg>
