<svg width="85" height="90" viewBox="0 0 85 90" fill="none" xmlns="http://www.w3.org/2000/svg">
<path d="M0.5 39.9243C0.5 37.1955 0.5 35.8312 0.845461 34.5747C1.15147 33.4617 1.65437 32.4149 2.32946 31.4857C3.09157 30.4367 4.14943 29.599 6.26515 27.9237L37.9159 2.86194C39.5554 1.56374 40.3752 0.914632 41.2804 0.665119C42.0791 0.44496 42.9209 0.44496 43.7196 0.665119C44.6248 0.914632 45.4446 1.56374 47.0841 2.86195L78.7348 27.9238C80.8506 29.599 81.9084 30.4367 82.6705 31.4857C83.3456 32.4149 83.8485 33.4617 84.1545 34.5747C84.5 35.8312 84.5 37.1955 84.5 39.9243V74.297C84.5 79.6185 84.5 82.2793 83.4827 84.3119C82.5879 86.0998 81.1601 87.5534 79.4039 88.4644C77.4074 89.5 74.7938 89.5 69.5667 89.5H15.4333C10.2062 89.5 7.5926 89.5 5.59609 88.4644C3.83991 87.5534 2.41209 86.0998 1.51727 84.3119C0.5 82.2793 0.5 79.6185 0.5 74.297V39.9243Z" stroke="url(#paint0_linear_135_686)" stroke-opacity="0.55" stroke-linecap="round" stroke-linejoin="round"/>
<defs>
<linearGradient id="paint0_linear_135_686" x1="42.5" y1="-3.54546" x2="86.5182" y2="101.324" gradientUnits="userSpaceOnUse">
<stop stop-color="#9EC8FF" stop-opacity="0.4"/>
<stop offset="0.4" stop-color="#9EC8FF" stop-opacity="0.01"/>
<stop offset="0.6" stop-color="#9EC8FF" stop-opacity="0.01"/>
<stop offset="1" stop-color="#9EC8FF" stop-opacity="0.1"/>
</linearGradient>
</defs>
</svg>
