<svg width="237" height="252" viewBox="0 0 237 252" fill="none" xmlns="http://www.w3.org/2000/svg">
<path d="M0.5 111.685C0.5 103.99 0.5 100.142 1.47058 96.5983C2.33033 93.4595 3.74324 90.5072 5.63991 87.8866C7.78108 84.9281 10.7532 82.5658 16.6973 77.8411L105.621 7.16121C110.227 3.49997 112.53 1.66936 115.073 0.965673C117.317 0.344776 119.683 0.344776 121.927 0.965673C124.47 1.66936 126.773 3.49998 131.379 7.16122L220.303 77.8411C226.247 82.5658 229.219 84.9281 231.36 87.8866C233.257 90.5072 234.67 93.4595 235.529 96.5983C236.5 100.142 236.5 103.99 236.5 111.685V208.624C236.5 223.632 236.5 231.136 233.642 236.868C231.128 241.911 227.116 246.01 222.182 248.579C216.573 251.5 209.23 251.5 194.544 251.5H42.4556C27.7697 251.5 20.4268 251.5 14.8176 248.579C9.88356 246.01 5.87206 241.911 3.35805 236.868C0.5 231.136 0.5 223.632 0.5 208.624V111.685Z" stroke="url(#paint0_linear_135_690)" stroke-opacity="0.55" stroke-linecap="round" stroke-linejoin="round"/>
<defs>
<linearGradient id="paint0_linear_135_690" x1="118.5" y1="-10.9091" x2="242.972" y2="284.51" gradientUnits="userSpaceOnUse">
<stop stop-color="#9EC8FF" stop-opacity="0.4"/>
<stop offset="0.4" stop-color="#9EC8FF" stop-opacity="0.01"/>
<stop offset="0.6" stop-color="#9EC8FF" stop-opacity="0.01"/>
<stop offset="1" stop-color="#9EC8FF" stop-opacity="0.1"/>
</linearGradient>
</defs>
</svg>
