<svg width="157" height="168" viewBox="0 0 157 168" fill="none" xmlns="http://www.w3.org/2000/svg">
<path d="M0.5 74.4759C0.5 69.3557 0.5 66.7956 1.14157 64.4379C1.70988 62.3495 2.64384 60.3853 3.89757 58.6417C5.31292 56.6733 7.27752 55.1015 11.2067 51.958L69.9867 4.93196C73.0315 2.496 74.5539 1.27802 76.235 0.80983C77.7183 0.396723 79.2817 0.396723 80.765 0.80983C82.4461 1.27802 83.9685 2.496 87.0133 4.93197L145.793 51.9581C149.722 55.1015 151.687 56.6733 153.102 58.6417C154.356 60.3853 155.29 62.3495 155.858 64.4379C156.5 66.7956 156.5 69.3557 156.5 74.4759V138.973C156.5 148.958 156.5 153.951 154.611 157.765C152.949 161.12 150.297 163.847 147.036 165.557C143.328 167.5 138.474 167.5 128.767 167.5H28.2333C18.5258 167.5 13.672 167.5 9.96417 165.557C6.70269 163.847 4.05103 161.12 2.38922 157.765C0.5 153.951 0.5 148.958 0.5 138.973V74.4759Z" stroke="url(#paint0_linear_135_688)" stroke-opacity="0.55" stroke-linecap="round" stroke-linejoin="round"/>
<defs>
<linearGradient id="paint0_linear_135_688" x1="78.5" y1="-7.09091" x2="161.693" y2="189.075" gradientUnits="userSpaceOnUse">
<stop stop-color="#9EC8FF" stop-opacity="0.4"/>
<stop offset="0.4" stop-color="#9EC8FF" stop-opacity="0.01"/>
<stop offset="0.6" stop-color="#9EC8FF" stop-opacity="0.01"/>
<stop offset="1" stop-color="#9EC8FF" stop-opacity="0.1"/>
</linearGradient>
</defs>
</svg>
