<svg width="197" height="211" viewBox="0 0 197 211" fill="none" xmlns="http://www.w3.org/2000/svg">
<path d="M0.5 93.5236C0.5 87.085 0.5 83.8657 1.30608 80.901C2.0201 78.2748 3.19354 75.8048 4.76874 73.6123C6.547 71.1371 9.01534 69.1606 13.952 65.2077L87.8038 6.07312C91.6293 3.00994 93.5421 1.47835 95.6542 0.889607C97.5179 0.370131 99.4821 0.370131 101.346 0.889607C103.458 1.47835 105.371 3.00994 109.196 6.07313L183.048 65.2077C187.985 69.1606 190.453 71.1371 192.231 73.6123C193.806 75.8048 194.98 78.2748 195.694 80.901C196.5 83.8657 196.5 87.085 196.5 93.5236V174.628C196.5 187.184 196.5 193.462 194.126 198.258C192.038 202.477 188.707 205.907 184.609 208.056C179.951 210.5 173.852 210.5 161.656 210.5H35.3444C23.1477 210.5 17.0494 210.5 12.3909 208.056C8.29312 205.907 4.96154 202.477 2.87364 198.258C0.5 193.462 0.5 187.184 0.5 174.628V93.5236Z" stroke="url(#paint0_linear_135_689)" stroke-opacity="0.55" stroke-linecap="round" stroke-linejoin="round"/>
<defs>
<linearGradient id="paint0_linear_135_689" x1="98.5" y1="-9.04546" x2="203.176" y2="237.566" gradientUnits="userSpaceOnUse">
<stop stop-color="#9EC8FF" stop-opacity="0.4"/>
<stop offset="0.4" stop-color="#9EC8FF" stop-opacity="0.01"/>
<stop offset="0.6" stop-color="#9EC8FF" stop-opacity="0.01"/>
<stop offset="1" stop-color="#9EC8FF" stop-opacity="0.1"/>
</linearGradient>
</defs>
</svg>
