<svg width="32" height="32" viewBox="0 0 32 32" fill="none" xmlns="http://www.w3.org/2000/svg">
<path fill-rule="evenodd" clip-rule="evenodd" d="M21.9999 2C20.3431 2 18.9999 3.34315 18.9999 5C18.9999 6.30622 19.8347 7.41746 20.9999 7.82929V8.19722C20.9999 9.65785 21.7299 11.0218 22.9452 11.8321L23.285 12.0585C23.7316 12.3563 23.9999 12.8576 23.9999 13.3944C23.9999 14.2812 23.2811 15 22.3944 15H21.9999C20.8954 15 19.9999 14.1046 19.9999 13L17.9999 13C17.9999 15.2091 19.7908 17 21.9999 17H22.3944C24.3857 17 25.9999 15.3857 25.9999 13.3944C25.9999 12.1889 25.3974 11.0632 24.3944 10.3944L24.0546 10.168C23.3957 9.72867 22.9999 8.98915 22.9999 8.19722V7.82929C24.1651 7.41746 24.9999 6.30622 24.9999 5C24.9999 3.34315 23.6568 2 21.9999 2ZM20.9999 5C20.9999 4.44772 21.4477 4 21.9999 4C22.5522 4 22.9999 4.44772 22.9999 5C22.9999 5.55228 22.5522 6 21.9999 6C21.4476 6 20.9999 5.55228 20.9999 5Z" fill="white"/>
<path d="M4.99994 5L16.9999 5L16.9999 7L4.99994 7C4.44765 7 3.99994 7.44772 3.99994 8L3.99994 24C3.99994 24.5523 4.44765 25 4.99994 25H26.9999C27.5522 25 27.9999 24.5523 27.9999 24V8C27.9999 7.44771 27.5522 7 26.9999 7L26.9999 5C28.6568 5 29.9999 6.34315 29.9999 8V24C29.9999 25.6569 28.6568 27 26.9999 27H4.99994C3.34309 27 1.99994 25.6569 1.99994 24L1.99994 8C1.99994 6.34314 3.34308 5 4.99994 5Z" fill="white"/>
<path fill-rule="evenodd" clip-rule="evenodd" d="M9.14714 17.8773C8.04156 16.8343 7.57611 15.2937 7.57611 13.4759C7.57611 11.7732 8.28452 10.6128 9.20308 9.90364C10.0725 9.23243 11.0815 9 11.7276 9C12.3737 9 13.3828 9.23243 14.2521 9.90364C15.1707 10.6128 15.8791 11.7732 15.8791 13.4759C15.8791 15.2946 15.4132 16.8357 14.3065 17.8788C14.3343 18.1002 14.4887 18.2884 14.7057 18.3564L15.1767 18.5039C16.5314 18.9282 17.4535 20.1832 17.4535 21.6029V22.9993L15.4535 22.9993V21.6029C15.4535 21.0576 15.0993 20.5754 14.5789 20.4124L14.108 20.2649C13.3745 20.0352 12.8009 19.4985 12.5107 18.8228C12.2525 18.863 11.9882 18.8788 11.7276 18.8788C11.4664 18.8788 11.2016 18.8629 10.9429 18.8225C10.6527 19.4983 10.0791 20.0352 9.34551 20.2649L8.87456 20.4124C8.35416 20.5754 7.99994 21.0576 7.99994 21.6029L7.99994 22.9993H5.99994V21.6029C5.99994 20.1832 6.92207 18.9281 8.27682 18.5039L8.74777 18.3564C8.96528 18.2882 9.11989 18.0993 9.14714 17.8773ZM9.57611 13.4759C9.57611 12.3979 9.99323 11.8203 10.4253 11.4867C10.9066 11.1152 11.4733 11 11.7276 11C11.982 11 12.5487 11.1152 13.0299 11.4867C13.462 11.8203 13.8791 12.3979 13.8791 13.4759C13.8791 15.1542 13.4087 16.0966 12.711 16.6097L12.644 16.6589L12.5861 16.7185C12.5734 16.7316 12.3944 16.8788 11.7276 16.8788C11.0608 16.8788 10.8818 16.7316 10.8691 16.7185L10.8112 16.6589L10.7443 16.6097C10.0465 16.0966 9.57611 15.1542 9.57611 13.4759Z" fill="white"/>
</svg>
