<svg width="20" height="20" viewBox="0 0 20 20" fill="none" xmlns="http://www.w3.org/2000/svg">
<path fill-rule="evenodd" clip-rule="evenodd" d="M1.25 10C1.25 5.16751 5.16751 1.25 10 1.25C14.8325 1.25 18.75 5.16751 18.75 10C18.75 14.8325 14.8325 18.75 10 18.75C5.16751 18.75 1.25 14.8325 1.25 10ZM10 2.5C9.68262 2.5 9.36983 2.51971 9.06282 2.55799V4.88384C9.06282 5.10767 8.98274 5.32411 8.83705 5.49404L7.13041 7.48466C6.9523 7.6924 6.69232 7.81196 6.41867 7.81196H4.84449L4.62219 8.57915L5.38381 9.44622L6.23342 8.7515C6.62081 8.43474 7.18869 8.47806 7.52354 8.84993L9.9671 11.5636C10.2837 11.9151 10.2887 12.4474 9.97888 12.8049L6.61009 16.692C7.6282 17.2087 8.78009 17.5 10 17.5C13.0594 17.5 15.691 15.6681 16.8577 13.0414L14.6283 15.6137C14.4503 15.8192 14.1918 15.9372 13.9199 15.9372H12.631C11.9827 15.9372 11.5301 15.295 11.7481 14.6844L12.9639 11.2803L11.6036 10.6973C11.1277 10.4933 10.9072 9.94221 11.1112 9.4663L11.8444 7.75544C11.9922 7.41073 12.3311 7.18724 12.7061 7.18724H14.601C14.6608 7.18724 14.7203 7.19296 14.7785 7.2042L14.6138 6.87474H12.5001C11.9823 6.87474 11.5626 6.455 11.5626 5.93724V4.80038C11.5626 4.58106 11.6395 4.36869 11.7799 4.20021L12.7599 3.02412C11.9057 2.68588 10.9746 2.5 10 2.5ZM13.9089 3.59792L12.8126 4.91352V5.62474H14.8069C15.162 5.62474 15.4866 5.82536 15.6455 6.14297L16.3292 7.51038C16.7486 8.34928 15.8126 9.2161 15.0083 8.73354L14.5145 8.43724H12.9122L12.3832 9.67147L13.7263 10.2471C14.1815 10.4422 14.4064 10.9577 14.2399 11.4241L13.0744 14.6872H13.7772L17.4893 10.404C17.4964 10.2702 17.5 10.1355 17.5 10C17.5 7.29005 16.0627 4.91579 13.9089 3.59792ZM7.81282 2.82393C4.98528 3.68463 2.86587 6.17069 2.54281 9.1939C3.18286 9.98092 4.99058 12.3835 5.40842 12.9396C5.58837 13.1791 5.63756 13.4816 5.55863 13.7579L5.07728 15.4426L5.59227 15.9578L8.85346 12.1949L6.79402 9.90779L5.94154 10.6049C5.55068 10.9244 4.97693 10.8771 4.64373 10.4978L3.57 9.27539C3.35876 9.03489 3.28482 8.70323 3.3739 8.39577L3.70923 7.23854C3.82536 6.83775 4.19241 6.56196 4.60969 6.56196H6.27497L7.81282 4.76822V2.82393ZM4.03367 14.5452C3.32557 13.6171 2.82909 12.5189 2.61624 11.3226C3.25918 12.1634 3.97861 13.118 4.31401 13.564L4.03367 14.5452Z" fill="white"/>
</svg>
