<svg width="32" height="32" viewBox="0 0 32 32" fill="none" xmlns="http://www.w3.org/2000/svg">
<path d="M12.0801 7.77882C9.21032 6.12196 5.54077 7.10521 3.88392 9.97497C2.22706 12.8447 3.21032 16.5143 6.08007 18.1711C6.78619 18.5788 7.53838 18.8259 8.2962 18.9254C9.08253 19.0286 9.87701 18.9731 10.633 18.7705L11.1506 20.7024C10.6192 20.8448 10.073 20.9327 9.52101 20.9636V23.4999H12.021V25.4999H9.52101V27.9999H7.52101V25.4999H5.02101V23.4999H7.52101V20.8235C6.68321 20.657 5.85875 20.3527 5.08007 19.9032C1.25373 17.694 -0.057271 12.8013 2.15187 8.97497C4.36101 5.14863 9.25373 3.83763 13.0801 6.04677C16.9064 8.2559 18.2174 13.1486 16.0083 16.975C14.3514 19.8447 15.3347 23.5143 18.2044 25.1711C21.0742 26.828 24.7437 25.8447 26.4006 22.975C28.0574 20.1052 27.0742 16.4357 24.2044 14.7788C23.4983 14.3711 22.7461 14.124 21.9883 14.0245C21.202 13.9213 20.4075 13.9769 19.6515 14.1794L19.1339 12.2476C20.1395 11.9781 21.1982 11.9037 22.2486 12.0416C22.815 12.1159 23.3783 12.2519 23.9288 12.4519L26.0002 8.86405L23.5025 9.5333L22.9849 7.60145L28.7804 6.04854L30.3333 11.8441L28.4015 12.3617L27.7322 9.86407L25.7111 13.3647C29.1428 15.6991 30.2412 20.3228 28.1326 23.975C25.9235 27.8013 21.0308 29.1123 17.2044 26.9032C13.3781 24.694 12.0671 19.8013 14.2762 15.975C15.9331 13.1052 14.9498 9.43567 12.0801 7.77882Z" fill="white"/>
</svg>
