<svg width="64" height="64" viewBox="0 0 64 64" fill="none" xmlns="http://www.w3.org/2000/svg">
<path fill-rule="evenodd" clip-rule="evenodd" d="M26.3414 12H15.6586C14.8349 14.3304 12.6124 16 10 16C6.6863 16 4 13.3137 4 10C4 6.6863 6.6863 4 10 4C12.6124 4 14.8349 5.66962 15.6586 8H26.3414C27.165 5.66962 29.3876 4 32 4C34.6124 4 36.835 5.66962 37.6586 8H48.3414C49.165 5.66962 51.3876 4 54 4C57.3138 4 60 6.6863 60 10C60 13.3137 57.3138 16 54 16C53.0738 16 52.1964 15.7901 51.4132 15.4153L37.4152 29.4132C37.7902 30.1964 38 31.0738 38 32C38 35.3138 35.3138 38 32 38C31.0738 38 30.1964 37.7902 29.4132 37.4152L15.4153 51.4132C15.5063 51.6034 15.5876 51.7992 15.6586 52H26.3414C27.165 49.6696 29.3876 48 32 48C34.6124 48 36.835 49.6696 37.6586 52H48.3414C49.165 49.6696 51.3876 48 54 48C57.3138 48 60 50.6862 60 54C60 57.3138 57.3138 60 54 60C51.3876 60 49.165 58.3304 48.3414 56H37.6586C36.835 58.3304 34.6124 60 32 60C29.3876 60 27.165 58.3304 26.3414 56H15.6586C14.8349 58.3304 12.6124 60 10 60C6.6863 60 4 57.3138 4 54C4 50.6862 6.6863 48 10 48C10.9263 48 11.8036 48.21 12.5869 48.5848L26.5848 34.5868C26.21 33.8036 26 32.9264 26 32C26 28.6862 28.6862 26 32 26C32.9264 26 33.8036 26.21 34.5868 26.5848L48.5848 12.5869C48.4936 12.3966 48.4124 12.2007 48.3414 12H37.6586C36.835 14.3304 34.6124 16 32 16C29.3876 16 27.165 14.3304 26.3414 12ZM30 10C30 8.89544 30.8954 8 32 8C33.1046 8 34 8.89544 34 10C34 11.1046 33.1046 12 32 12C30.8954 12 30 11.1046 30 10ZM30 32C30 30.8954 30.8954 30 32 30C33.1046 30 34 30.8954 34 32C34 33.1046 33.1046 34 32 34C30.8954 34 30 33.1046 30 32ZM32 52C30.8954 52 30 52.8954 30 54C30 55.1046 30.8954 56 32 56C33.1046 56 34 55.1046 34 54C34 52.8954 33.1046 52 32 52ZM10 8C8.89544 8 8 8.89544 8 10C8 11.1046 8.89544 12 10 12C11.1046 12 12 11.1046 12 10C12 8.89544 11.1046 8 10 8ZM8 54C8 52.8954 8.89544 52 10 52C11.1046 52 12 52.8954 12 54C12 55.1046 11.1046 56 10 56C8.89544 56 8 55.1046 8 54ZM52 10C52 8.89544 52.8954 8 54 8C55.1046 8 56 8.89544 56 10C56 11.1046 55.1046 12 54 12C52.8954 12 52 11.1046 52 10ZM54 52C52.8954 52 52 52.8954 52 54C52 55.1046 52.8954 56 54 56C55.1046 56 56 55.1046 56 54C56 52.8954 55.1046 52 54 52Z" fill="#006DFF"/>
<path fill-rule="evenodd" clip-rule="evenodd" d="M10 26C6.6863 26 4 28.6862 4 32C4 35.3138 6.6863 38 10 38C13.3137 38 16 35.3138 16 32C16 28.6862 13.3137 26 10 26ZM8 32C8 30.8954 8.89544 30 10 30C11.1046 30 12 30.8954 12 32C12 33.1046 11.1046 34 10 34C8.89544 34 8 33.1046 8 32Z" fill="#006DFF"/>
<path fill-rule="evenodd" clip-rule="evenodd" d="M48 32C48 28.6862 50.6862 26 54 26C57.3138 26 60 28.6862 60 32C60 35.3138 57.3138 38 54 38C50.6862 38 48 35.3138 48 32ZM54 30C52.8954 30 52 30.8954 52 32C52 33.1046 52.8954 34 54 34C55.1046 34 56 33.1046 56 32C56 30.8954 55.1046 30 54 30Z" fill="#006DFF"/>
</svg>
