<svg width="32" height="32" viewBox="0 0 32 32" fill="none" xmlns="http://www.w3.org/2000/svg">
<path d="M19 19.9999C20.1197 19.9999 20.993 19.4306 21.6278 18.7381C22.2544 18.0545 22.7143 17.1855 23.0481 16.3845C23.386 15.5735 23.6189 14.7723 23.767 14.1799C23.8415 13.882 23.8955 13.6327 23.9313 13.4561C23.9492 13.3677 23.9625 13.2972 23.9716 13.2476L23.9821 13.1892L23.985 13.1725L23.9859 13.1673L23.9863 13.1649C23.9863 13.1649 23.9864 13.1643 23 12.9999C22.0136 12.8355 22.0135 12.8361 22.0135 12.8361L22.0119 12.845L22.0044 12.887C21.9974 12.9253 21.9863 12.9837 21.971 13.0594C21.9404 13.2108 21.8929 13.4303 21.8267 13.6949C21.6935 14.2276 21.489 14.9263 21.2019 15.6153C20.9106 16.3143 20.5581 16.9453 20.1534 17.3867C19.7569 17.8193 19.3802 17.9999 19 17.9999C18.0609 17.9999 17.5882 17.4509 16.8 16.3999L16.7404 16.3204C16.0308 15.3721 15.0041 13.9999 13 13.9999C11.8802 13.9999 11.0069 14.5693 10.3722 15.2617C9.74557 15.9453 9.28563 16.8143 8.9519 17.6153C8.61399 18.4263 8.38104 19.2276 8.23296 19.8199C8.15848 20.1178 8.10443 20.3671 8.06868 20.5437C8.05078 20.6322 8.03742 20.7026 8.02833 20.7522L8.01786 20.8106L8.01496 20.8274L8.01408 20.8325L8.01367 20.835C8.01367 20.835 8.01358 20.8355 8.99998 20.9999C9.78468 21.1307 9.94521 21.157 9.97803 21.1623C9.98647 21.1637 9.98646 21.1638 9.98646 21.1638L9.98801 21.1548L9.99555 21.1129C10.0026 21.0745 10.0136 21.0161 10.0289 20.9405C10.0596 20.789 10.1071 20.5695 10.1732 20.305C10.3064 19.7723 10.511 19.0735 10.7981 18.3845C11.0893 17.6855 11.4419 17.0545 11.8465 16.6131C12.243 16.1806 12.6197 15.9999 13 15.9999C13.9391 15.9999 14.4117 16.5489 15.2 17.5999L15.2595 17.6795C15.9691 18.6278 16.9958 19.9999 19 19.9999Z" fill="#006DFF"/>
<path fill-rule="evenodd" clip-rule="evenodd" d="M17.2572 2.47876C16.4595 2.1106 15.5406 2.1106 14.7429 2.47876L3.87474 7.49482C2.71331 8.03087 2.01952 9.24439 2.1468 10.5172L3.82492 27.2984C3.97828 28.832 5.26878 29.9999 6.81003 29.9999H25.1901C26.7313 29.9999 28.0218 28.832 28.1752 27.2984L29.8533 10.5172C29.9806 9.2444 29.2868 8.03087 28.1254 7.49482L17.2572 2.47876ZM15.581 4.29468C15.8469 4.17196 16.1532 4.17196 16.4191 4.29468L27.2873 9.31074C27.6744 9.48943 27.9057 9.89393 27.8632 10.3182L26.1851 27.0994C26.134 27.6106 25.7038 27.9999 25.1901 27.9999H6.81003C6.29628 27.9999 5.86612 27.6106 5.815 27.0994L4.13688 10.3182C4.09445 9.89393 4.32571 9.48943 4.71286 9.31074L15.581 4.29468Z" fill="#006DFF"/>
</svg>
