<svg width="32" height="32" viewBox="0 0 32 32" fill="none" xmlns="http://www.w3.org/2000/svg">
<path d="M8 2C6.34315 2 5 3.34315 5 5V27C5 28.6569 6.34315 30 8 30H17V28H8C7.44772 28 7 27.5523 7 27V5C7 4.44772 7.44772 4 8 4H18C18.5523 4 19 4.44772 19 5V10H21V5C21 3.34315 19.6569 2 18 2H8Z" fill="white"/>
<path d="M14.25 25.75C14.25 25.0596 13.6904 24.5 13 24.5C12.3096 24.5 11.75 25.0596 11.75 25.75C11.75 26.4404 12.3096 27 13 27C13.6904 27 14.25 26.4404 14.25 25.75Z" fill="white"/>
<path fill-rule="evenodd" clip-rule="evenodd" d="M23 14.0709C26.0657 14.5094 28.4906 16.9343 28.9291 20H31V22H28.9291C28.4906 25.0657 26.0657 27.4906 23 27.9291V30H21V27.9291C17.9343 27.4906 15.5094 25.0657 15.0709 22H13V20H15.0709C15.5094 16.9343 17.9343 14.5094 21 14.0709V12H23V14.0709ZM21 16.1V18H23V16.1C24.9591 16.4977 26.5023 18.0409 26.9 20H25V22H26.9C26.5023 23.9591 24.9591 25.5023 23 25.9V24H21V25.9C19.0409 25.5023 17.4977 23.9591 17.1 22H19V20H17.1C17.4977 18.0409 19.0409 16.4977 21 16.1Z" fill="white"/>
</svg>
