<svg width="32" height="32" viewBox="0 0 32 32" fill="none" xmlns="http://www.w3.org/2000/svg">
<path fill-rule="evenodd" clip-rule="evenodd" d="M8.50013 15.2086L4.69042 24.172C3.98384 23.6086 3.33343 22.9938 2.74703 22.335L1.25305 23.6646C4.70205 27.5398 10.0411 29.9998 16 29.9998C21.959 29.9998 27.298 27.5398 30.747 23.6646L29.253 22.335C28.5494 23.1256 27.7536 23.8527 26.8792 24.5036L24.6225 19.1941L26.1691 12.9566L29.3421 14.5545L31.1648 9.87605L27.5877 6.18534L28.2551 3H24.6905C20.8245 3 17.6905 6.13401 17.6905 10V11.5556H14.0221C13.0584 11.5556 12.1321 11.7861 11.3073 12.2048C8.63683 8.96035 3.40141 9.22059 1.14246 12.9855L2.85744 14.0145C4.37308 11.4884 7.85949 11.2829 9.69584 13.3979C9.19932 13.9143 8.79093 14.5244 8.50013 15.2086ZM24.6905 5C21.9291 5 19.6905 7.23858 19.6905 10V13.5556H14.0221C12.4176 13.5556 10.9684 14.5143 10.3408 15.9909L6.36485 25.3454C6.76758 25.5925 7.18351 25.8246 7.61158 26.0408L8.70493 23.8541C10.0392 21.1856 12.7666 19.5 15.75 19.5C18.7335 19.5 21.4609 21.1856 22.7951 23.8541L23.9867 26.2373C24.3947 26.0441 24.7923 25.8367 25.1787 25.6158L22.5204 19.3614L24.8309 10.0434L28.277 11.7788L28.8352 10.3462L25.4124 6.81466L25.7926 5H24.6905ZM10.4938 24.7485C11.4892 22.7576 13.5241 21.5 15.75 21.5C17.9759 21.5 20.0108 22.7576 21.0062 24.7485L22.1282 26.9924C20.2334 27.6417 18.1671 27.9998 16 27.9998C13.6701 27.9998 11.4566 27.5859 9.44752 26.8411L10.4938 24.7485Z" fill="white"/>
</svg>
