<svg width="32" height="32" viewBox="0 0 32 32" fill="none" xmlns="http://www.w3.org/2000/svg">
<path d="M15.0001 2V13.5858L12.2072 10.7929L10.793 12.2071L16.0001 17.4142L21.2072 12.2071L19.793 10.7929L17.0001 13.5858V2H15.0001Z" fill="#006DFF"/>
<path d="M22.364 28.3637C25.8787 24.849 25.8787 19.1505 22.364 15.6357L23.7782 14.2215C28.0739 18.5173 28.0739 25.4821 23.7782 29.7779L22.364 28.3637Z" fill="#006DFF"/>
<path d="M9.63604 15.6357C6.12132 19.1505 6.12132 24.849 9.63604 28.3637L8.22183 29.7779C3.92606 25.4821 3.92606 18.5173 8.22183 14.2215L9.63604 15.6357Z" fill="#006DFF"/>
<path d="M18.1213 24.1221C19.2929 22.9505 19.2929 21.051 18.1213 19.8794L19.5355 18.4652C21.4882 20.4178 21.4882 23.5837 19.5355 25.5363C17.5829 27.4889 14.4171 27.4889 12.4645 25.5363C10.5118 23.5837 10.5118 20.4178 12.4645 18.4652L13.8787 19.8794C12.7071 21.051 12.7071 22.9505 13.8787 24.1221C15.0503 25.2936 16.9497 25.2936 18.1213 24.1221Z" fill="#006DFF"/>
</svg>
