<svg width="96" height="96" viewBox="0 0 96 96" fill="none" xmlns="http://www.w3.org/2000/svg">
<path d="M47.9999 21.5376C39.1948 21.5376 32.8571 29.7643 32.8571 38.8414C32.8571 44.5236 35.1326 49.6203 38.5366 54.3196C38.133 54.7562 37.554 55.2746 36.8051 55.8364C35.0006 57.1902 32.5674 58.5307 30.2318 59.3908L32.3051 65.0212C35.1843 63.9609 38.1326 62.3414 40.4058 60.6359C41.5392 59.7856 42.5949 58.8469 43.3992 57.8698C44.1152 57.0001 45.0314 55.6263 45.0314 53.9685V52.9293L44.3886 52.1128C40.7987 47.5527 38.8571 43.2631 38.8571 38.8414C38.8571 32.119 43.3924 27.5376 47.9999 27.5376C52.6074 27.5376 57.1427 32.119 57.1427 38.8414C57.1427 43.2631 55.2011 47.5527 51.6112 52.1128L50.9684 52.9293V53.9685C50.9684 55.6263 51.8846 57.0001 52.6005 57.8698C53.4048 58.8469 54.4606 59.7856 55.5939 60.6359C57.8672 62.3414 60.8154 63.9609 63.6946 65.0211L65.7679 59.3908C63.4323 58.5307 60.9991 57.1902 59.1947 55.8364C58.4458 55.2746 57.8667 54.7562 57.4632 54.3196C60.8672 49.6203 63.1427 44.5236 63.1427 38.8414C63.1427 29.7643 56.8049 21.5376 47.9999 21.5376Z" fill="url(#paint0_linear_170_54)"/>
<path fill-rule="evenodd" clip-rule="evenodd" d="M83.25 19.4762L48 5.78174L12.75 19.4762L12.75 38.5799C12.75 48.8546 13.9572 58.7276 18.9648 67.5555C24.0059 76.4425 32.6746 83.8887 46.8502 89.7711L48 90.2482L49.1498 89.7711C63.3253 83.8887 71.9941 76.4425 77.0352 67.5555C82.0428 58.7276 83.25 48.8546 83.25 38.5799L83.25 19.4762ZM18.75 38.5799L18.75 23.5821L48 12.2186L77.25 23.5821L77.25 38.5799C77.25 48.4646 76.0665 57.1025 71.8163 64.5952C67.7228 71.8117 60.5761 78.322 48 83.743C35.4239 78.322 28.2772 71.8117 24.1837 64.5952C19.9335 57.1025 18.75 48.4646 18.75 38.5799Z" fill="url(#paint1_linear_170_54)"/>
<defs>
<linearGradient id="paint0_linear_170_54" x1="48" y1="5.78174" x2="48" y2="90.2482" gradientUnits="userSpaceOnUse">
<stop stop-color="white"/>
<stop offset="1" stop-color="#BDDAFF"/>
</linearGradient>
<linearGradient id="paint1_linear_170_54" x1="48" y1="5.78174" x2="48" y2="90.2482" gradientUnits="userSpaceOnUse">
<stop stop-color="white"/>
<stop offset="1" stop-color="#BDDAFF"/>
</linearGradient>
</defs>
</svg>
