<svg width="64" height="64" viewBox="0 0 64 64" fill="none" xmlns="http://www.w3.org/2000/svg">
<path d="M38.9043 6.53709L35.8145 9.62693L32 8.14646L12.5 15.7207V25.7207C12.5001 32.3099 13.29 38.0677 16.123 43.0625C18.8521 47.8734 23.6161 52.2142 32 55.8281C40.3838 52.2142 45.1479 47.8734 47.877 43.0625C50.71 38.0677 51.4999 32.3099 51.5 25.7207V25.0566L55.5 21.0566V25.7207C55.4999 32.57 54.6956 39.1521 51.3574 45.0371C47.9967 50.9617 42.2159 55.9261 32.7656 59.8476L32 60.166L31.2344 59.8476C21.7841 55.9261 16.0033 50.9617 12.6426 45.0371C9.30444 39.1521 8.50008 32.57 8.5 25.7207V12.9844L32 3.85545L38.9043 6.53709Z" fill="#006DFF"/>
<path d="M44.1777 26.7324L31.5449 38.7324C30.7732 39.4645 29.5626 39.4647 28.791 38.7324L21.4219 31.7324L24.1777 28.832L30.168 34.5234L41.4219 23.832L44.1777 26.7324Z" fill="#006DFF"/>
<path d="M48.8438 2.88084C49.0115 1.70671 50.7053 1.70671 50.873 2.88084C51.3889 6.4907 54.226 9.32607 57.8359 9.84178C59.01 10.0095 59.0099 11.7052 57.8359 11.873C54.2259 12.3888 51.3888 15.2258 50.873 18.8359C50.705 20.0094 49.0119 20.0094 48.8438 18.8359C48.328 15.2259 45.4908 12.3888 41.8809 11.873C40.7067 11.7053 40.7067 10.0095 41.8809 9.84178C45.4906 9.32593 48.3279 6.4906 48.8438 2.88084Z" fill="#006DFF"/>
</svg>
