<svg width="24" height="24" viewBox="0 0 24 24" fill="none" xmlns="http://www.w3.org/2000/svg">
<path d="M23.4991 5.66068C23.2223 4.61146 22.4094 3.78802 21.3768 3.50911C19.5049 3 12 3 12 3C12 3 4.49506 3 2.62321 3.50911C1.59063 3.78802 0.777737 4.61146 0.500915 5.66068C0 7.5599 0 11.5177 0 11.5177C0 11.5177 0 15.4755 0.500915 17.3747C0.777737 18.424 1.59063 19.212 2.62321 19.4909C4.49506 20 12 20 12 20C12 20 19.5049 20 21.3768 19.4909C22.4094 19.212 23.2223 18.4195 23.4991 17.3747C24 15.4755 24 11.5177 24 11.5177C24 11.5177 24 7.5599 23.4991 5.66068ZM9.54815 15.1125V7.92292L15.8184 11.5177L9.54815 15.1125Z" fill="white"/>
</svg>
