<svg width="24" height="24" viewBox="0 0 24 24" fill="none" xmlns="http://www.w3.org/2000/svg">
<path d="M23 9.84003C20.9356 9.84445 18.922 9.19997 17.2438 7.99766V16.3797C17.2433 17.9321 16.7689 19.4474 15.884 20.7228C14.9991 21.9983 13.7459 22.9731 12.292 23.5169C10.8381 24.0608 9.25287 24.1477 7.74825 23.7661C6.24363 23.3845 4.89139 22.5525 3.87237 21.3815C2.85335 20.2104 2.21614 18.7561 2.04595 17.2131C1.87577 15.6701 2.18073 14.1118 2.92004 12.7468C3.65936 11.3818 4.79778 10.2751 6.18306 9.57468C7.56834 8.87428 9.13443 8.61357 10.6719 8.82743V13.0419C9.96888 12.8206 9.21393 12.8271 8.51483 13.0604C7.81573 13.2938 7.20822 13.742 6.77905 14.3413C6.34987 14.9405 6.12099 15.66 6.12506 16.3971C6.12913 17.1341 6.36596 17.8511 6.80173 18.4455C7.2375 19.04 7.84993 19.4815 8.55157 19.7071C9.2532 19.9327 10.0082 19.9309 10.7087 19.7018C11.4092 19.4727 12.0194 19.0281 12.4522 18.4315C12.8851 17.8349 13.1183 17.1168 13.1188 16.3797V0H17.2438C17.2414 0.348908 17.2712 0.697289 17.3328 1.04073C17.4763 1.80627 17.7743 2.53452 18.2087 3.18097C18.6431 3.82741 19.2048 4.37847 19.8594 4.80047C20.7911 5.41593 21.8834 5.74363 23 5.74275V9.84003Z" fill="white"/>
</svg>
