<svg width="24" height="24" viewBox="0 0 24 24" fill="none" xmlns="http://www.w3.org/2000/svg">
<path d="M4.14286 1C2.40937 1 1 2.40937 1 4.14286V19.8571C1 21.5906 2.40937 23 4.14286 23H19.8571C21.5906 23 23 21.5906 23 19.8571V4.14286C23 2.40937 21.5906 1 19.8571 1H4.14286ZM18.7326 5.125L13.6353 10.9491L19.6312 18.875H14.9366L11.2634 14.0674L7.05491 18.875H4.72232L10.1732 12.6433L4.42277 5.125H9.23527L12.5598 9.52009L16.4 5.125H18.7326ZM16.8763 17.4804L8.53304 6.44598H7.1433L15.5799 17.4804H16.8714H16.8763Z" fill="white"/>
</svg>
