<svg width="223" height="32" viewBox="0 0 223 32" fill="none" xmlns="http://www.w3.org/2000/svg">
<path d="M51.0204 10.429H49.4365V0.644816H53.6417C55.4359 0.644816 56.4872 1.80826 56.4872 3.58847C56.4872 5.36868 55.4359 6.53212 53.6417 6.53212H51.0204V10.429ZM51.0204 2.03254V5.1444H53.5436C54.3425 5.1444 54.8191 4.70986 54.8191 3.92489V3.25205C54.8191 2.46708 54.3425 2.03254 53.5436 2.03254H51.0204ZM58.2227 10.429V0.0560851H59.7506V4.34541H59.8207C60.1291 3.56043 60.7458 2.9717 61.8672 2.9717C63.3531 2.9717 64.2362 4.00899 64.2362 5.80322V10.429H62.7083V5.98544C62.7083 4.86405 62.2737 4.28934 61.3346 4.28934C60.5356 4.28934 59.7506 4.69584 59.7506 5.53689V10.429H58.2227ZM67.235 1.83629C66.6042 1.83629 66.3239 1.49988 66.3239 1.0373V0.799007C66.3239 0.336433 66.6042 1.53971e-05 67.235 1.53971e-05C67.8658 1.53971e-05 68.1321 0.336433 68.1321 0.799007V1.0373C68.1321 1.49988 67.8658 1.83629 67.235 1.83629ZM66.464 10.429V3.13991H67.9919V10.429H66.464ZM72.5967 10.5972C71.223 10.5972 70.3259 10.0785 69.6391 9.22346L70.6203 8.32635C71.1529 8.97115 71.8117 9.36364 72.6808 9.36364C73.5639 9.36364 74.0125 8.99919 74.0125 8.38242C74.0125 7.91985 73.7321 7.56941 72.9752 7.47129L72.3024 7.38718C70.8165 7.20496 69.9054 6.56016 69.9054 5.21449C69.9054 3.79873 71.0128 2.9717 72.6107 2.9717C73.9284 2.9717 74.6713 3.40624 75.3301 4.13515L74.391 5.03226C74.0125 4.5837 73.3957 4.20523 72.6107 4.20523C71.7697 4.20523 71.3772 4.56969 71.3772 5.11637C71.3772 5.67706 71.7276 5.92938 72.4986 6.05553L73.1714 6.13964C74.7694 6.37793 75.4843 7.0788 75.4843 8.25626C75.4843 9.658 74.3489 10.5972 72.5967 10.5972ZM77.3206 10.429V0.0560851H78.8485V4.34541H78.9185C79.2269 3.56043 79.8437 2.9717 80.9651 2.9717C82.4509 2.9717 83.334 4.00899 83.334 5.80322V10.429H81.8061V5.98544C81.8061 4.86405 81.3716 4.28934 80.4324 4.28934C79.6334 4.28934 78.8485 4.69584 78.8485 5.53689V10.429H77.3206ZM86.3328 1.83629C85.7021 1.83629 85.4217 1.49988 85.4217 1.0373V0.799007C85.4217 0.336433 85.7021 1.53971e-05 86.3328 1.53971e-05C86.9636 1.53971e-05 87.23 0.336433 87.23 0.799007V1.0373C87.23 1.49988 86.9636 1.83629 86.3328 1.83629ZM85.5619 10.429V3.13991H87.0898V10.429H85.5619ZM90.9096 10.429H89.3817V3.13991H90.9096V4.34541H90.9797C91.2881 3.56043 91.9048 2.9717 93.0262 2.9717C94.5121 2.9717 95.3952 4.00899 95.3952 5.80322V10.429H93.8673V5.99946C93.8673 4.86405 93.4327 4.28934 92.4936 4.28934C91.6946 4.28934 90.9096 4.69584 90.9096 5.55091V10.429ZM104.015 11.1158C104.015 12.6297 102.936 13.4006 100.314 13.4006C97.9314 13.4006 97.0063 12.7558 97.0063 11.6485C97.0063 10.8495 97.4828 10.4149 98.2538 10.2467V10.0925C97.7211 9.92433 97.4268 9.51783 97.4268 8.97115C97.4268 8.21421 98.0155 7.84976 98.7164 7.68155V7.62548C97.8613 7.21898 97.3847 6.44802 97.3847 5.4668C97.3847 3.98096 98.436 2.9717 100.286 2.9717C100.777 2.9717 101.225 3.04179 101.604 3.19598V2.99974C101.604 2.35494 101.912 1.96245 102.557 1.96245H103.679V3.19598H102.193V3.49035C102.852 3.92489 103.216 4.62576 103.216 5.4668C103.216 6.93863 102.151 7.93386 100.3 7.93386C99.9499 7.93386 99.6135 7.89181 99.3472 7.82172C98.9827 7.94788 98.6463 8.18618 98.6463 8.55063C98.6463 8.94312 99.0248 9.09731 99.6696 9.09731H101.464C103.258 9.09731 104.015 9.85425 104.015 11.1158ZM102.585 11.284C102.585 10.7794 102.249 10.457 101.254 10.457H98.7865C98.4501 10.6532 98.2818 10.9476 98.2818 11.298C98.2818 11.8868 98.7164 12.2933 99.8518 12.2933H100.805C101.996 12.2933 102.585 11.9569 102.585 11.284ZM100.3 6.82649C101.197 6.82649 101.716 6.41998 101.716 5.59296V5.31261C101.716 4.48558 101.197 4.07908 100.3 4.07908C99.4032 4.07908 98.8846 4.48558 98.8846 5.31261V5.59296C98.8846 6.41998 99.4032 6.82649 100.3 6.82649ZM115.357 10.429L114.446 9.43373C113.955 9.92433 113.1 10.5972 111.615 10.5972C109.582 10.5972 108.475 9.40569 108.475 7.87779C108.475 6.47605 109.4 5.73313 110.465 5.13038C109.848 4.47157 109.358 3.70061 109.358 2.83153C109.358 1.51389 110.423 0.476607 112.035 0.476607C113.549 0.476607 114.628 1.33167 114.628 2.63529C114.628 3.91087 113.661 4.63977 112.498 5.31261L114.404 7.37317C114.67 6.70033 114.81 5.92938 114.853 5.17244H116.941V6.46204H115.988C115.848 7.17692 115.623 7.82172 115.343 8.35439L117.264 10.429H115.357ZM112.035 1.69612C111.362 1.69612 110.83 2.13066 110.83 2.78948V2.90162C110.83 3.37821 111.152 3.84078 111.727 4.47157C112.512 4.03703 113.156 3.51838 113.156 2.83153V2.71939C113.156 2.06057 112.708 1.69612 112.035 1.69612ZM111.797 9.29355C112.582 9.29355 113.17 9.0132 113.619 8.55063L111.236 5.98544C110.535 6.37793 110.045 6.79845 110.045 7.6395V7.82172C110.045 8.70482 110.703 9.29355 111.797 9.29355ZM126.334 10.429H124.498L121.288 0.644816H122.928L124.484 5.48082L125.423 8.88705H125.479L126.432 5.48082L127.988 0.644816H129.586L126.334 10.429ZM136.757 10.429H135.902C135.103 10.429 134.683 9.92433 134.585 9.20945H134.514C134.234 10.1206 133.449 10.5972 132.384 10.5972C130.884 10.5972 130.029 9.74211 130.029 8.42447C130.029 6.98068 131.108 6.23776 133.141 6.23776H134.458V5.62099C134.458 4.7379 133.982 4.21925 132.959 4.21925C132.103 4.21925 131.585 4.63977 131.22 5.21449L130.309 4.38746C130.786 3.57445 131.641 2.9717 133.057 2.9717C134.935 2.9717 135.986 3.89685 135.986 5.52287V9.18141H136.757V10.429ZM132.818 9.43373C133.758 9.43373 134.458 8.98517 134.458 8.27028V7.21898H133.169C132.103 7.21898 131.585 7.56941 131.585 8.20019V8.45251C131.585 9.09731 132.061 9.43373 132.818 9.43373ZM139.893 10.429H138.365V3.13991H139.893V4.54165H139.963C140.173 3.79873 140.804 3.13991 141.967 3.13991H142.374V4.61174H141.771C140.566 4.61174 139.893 5.01824 139.893 5.77518V10.429ZM144.612 1.83629C143.981 1.83629 143.701 1.49988 143.701 1.0373V0.799007C143.701 0.336433 143.981 1.53971e-05 144.612 1.53971e-05C145.243 1.53971e-05 145.509 0.336433 145.509 0.799007V1.0373C145.509 1.49988 145.243 1.83629 144.612 1.83629ZM143.841 10.429V3.13991H145.369V10.429H143.841ZM153.857 10.429H153.001C152.202 10.429 151.782 9.92433 151.684 9.20945H151.614C151.333 10.1206 150.548 10.5972 149.483 10.5972C147.983 10.5972 147.128 9.74211 147.128 8.42447C147.128 6.98068 148.208 6.23776 150.24 6.23776H151.558V5.62099C151.558 4.7379 151.081 4.21925 150.058 4.21925C149.203 4.21925 148.684 4.63977 148.32 5.21449L147.409 4.38746C147.885 3.57445 148.74 2.9717 150.156 2.9717C152.034 2.9717 153.086 3.89685 153.086 5.52287V9.18141H153.857V10.429ZM149.918 9.43373C150.857 9.43373 151.558 8.98517 151.558 8.27028V7.21898H150.268C149.203 7.21898 148.684 7.56941 148.684 8.20019V8.45251C148.684 9.09731 149.161 9.43373 149.918 9.43373ZM156.992 10.429H155.464V3.13991H156.992V4.34541H157.062C157.37 3.56043 157.987 2.9717 159.109 2.9717C160.594 2.9717 161.478 4.00899 161.478 5.80322V10.429H159.95V5.99946C159.95 4.86405 159.515 4.28934 158.576 4.28934C157.777 4.28934 156.992 4.69584 156.992 5.55091V10.429ZM167.056 10.429H165.724C164.673 10.429 164.112 9.84023 164.112 8.84499V4.38746H162.977V3.13991H163.593C164.098 3.13991 164.266 2.92965 164.266 2.42503V1.14944H165.64V3.13991H167.168V4.38746H165.64V9.18141H167.056V10.429ZM171.248 10.5972C169.874 10.5972 168.977 10.0785 168.29 9.22346L169.272 8.32635C169.804 8.97115 170.463 9.36364 171.332 9.36364C172.215 9.36364 172.664 8.99919 172.664 8.38242C172.664 7.91985 172.383 7.56941 171.627 7.47129L170.954 7.38718C169.468 7.20496 168.557 6.56016 168.557 5.21449C168.557 3.79873 169.664 2.9717 171.262 2.9717C172.58 2.9717 173.323 3.40624 173.981 4.13515L173.042 5.03226C172.664 4.5837 172.047 4.20523 171.262 4.20523C170.421 4.20523 170.029 4.56969 170.029 5.11637C170.029 5.67706 170.379 5.92938 171.15 6.05553L171.823 6.13964C173.421 6.37793 174.136 7.0788 174.136 8.25626C174.136 9.658 173 10.5972 171.248 10.5972ZM-2.54231e-05 24.0779C-2.54231e-05 21.3725 1.10735 19.0176 2.53712 17.7981H3.60245C2.04651 19.1998 1.05128 21.5267 1.05128 23.4892V24.6947C1.05128 26.6571 2.08857 29.026 3.60245 30.3717H2.53712C1.1494 29.1943 -2.54231e-05 26.8113 -2.54231e-05 24.0779ZM10.917 28.4513H4.94557V18.6672H10.917V19.7045H6.12303V22.9845H10.6366V24.0218H6.12303V27.414H10.917V28.4513ZM14.2372 28.4513H13.1158V21.2184H14.2372V22.3958H14.2933C14.6157 21.6529 15.1203 21.0501 16.2417 21.0501C17.1949 21.0501 18.064 21.4847 18.4564 22.522H18.4845C18.7508 21.737 19.4517 21.0501 20.6852 21.0501C22.157 21.0501 23.0401 22.0594 23.0401 23.8116V28.4513H21.9187V24.0078C21.9187 22.7322 21.4281 22.0594 20.3348 22.0594C19.4517 22.0594 18.6387 22.508 18.6387 23.4331V28.4513H17.5173V24.0078C17.5173 22.7182 17.0267 22.0594 15.9614 22.0594C15.0783 22.0594 14.2372 22.508 14.2372 23.4331V28.4513ZM31.3511 28.4513H30.7203C29.8933 28.4513 29.5569 27.9467 29.4728 27.2739H29.4027C29.0943 28.157 28.3234 28.6195 27.3141 28.6195C25.7862 28.6195 24.8891 27.7785 24.8891 26.4328C24.8891 25.0731 25.8703 24.3162 27.9729 24.3162H29.4027V23.6013C29.4027 22.578 28.842 22.0173 27.6926 22.0173C26.8235 22.0173 26.2488 22.4379 25.8563 23.0967L25.1835 22.4659C25.5759 21.6949 26.445 21.0501 27.7486 21.0501C29.4868 21.0501 30.5241 21.9613 30.5241 23.4892V27.4701H31.3511V28.4513ZM27.4963 27.6664C28.6037 27.6664 29.4027 27.0916 29.4027 26.3487V25.1572H27.9168C26.6413 25.1572 26.0665 25.5497 26.0665 26.2506V26.545C26.0665 27.2599 26.6272 27.6664 27.4963 27.6664ZM33.6224 19.5222C33.1458 19.5222 32.9356 19.2699 32.9356 18.8915V18.7092C32.9356 18.3308 33.1458 18.0785 33.6224 18.0785C34.099 18.0785 34.3093 18.3308 34.3093 18.7092V18.8915C34.3093 19.2699 34.099 19.5222 33.6224 19.5222ZM33.0617 28.4513V21.2184H34.1831V28.4513H33.0617ZM38.8629 28.4513H37.8677C37.0967 28.4513 36.6762 27.9607 36.6762 27.2879V18.0785H37.7976V27.4701H38.8629V28.4513ZM41.4573 26.8113C42.0461 26.8113 42.3124 27.1477 42.3124 27.6383V27.8346C42.3124 28.5915 41.8358 29.6288 41.0368 30.3156H40.0976C40.6583 29.7269 40.9948 29.2363 41.149 28.5775C40.7705 28.4934 40.6023 28.213 40.6023 27.8346V27.6383C40.6023 27.1477 40.8686 26.8113 41.4573 26.8113ZM50.9542 28.6195C49.3842 28.6195 48.2768 27.9747 47.4919 26.9094L48.361 26.1805C49.0478 27.0916 49.8608 27.5823 50.9962 27.5823C52.398 27.5823 53.1549 26.8533 53.1549 25.732C53.1549 24.8068 52.6363 24.3442 51.3467 24.0499L50.5477 23.8676C48.7675 23.4611 47.7862 22.6762 47.7862 21.1763C47.7862 19.4381 49.1039 18.499 51.0243 18.499C52.4961 18.499 53.5334 19.0597 54.2623 20.097L53.3792 20.7418C52.8465 19.9988 52.1036 19.5363 50.9682 19.5363C49.7206 19.5363 48.9497 20.0829 48.9497 21.1342C48.9497 22.0594 49.5524 22.4799 50.786 22.7603L51.585 22.9425C53.4913 23.377 54.3183 24.2181 54.3183 25.6759C54.3183 27.4701 53.0568 28.6195 50.9542 28.6195ZM56.4618 28.4513V18.6672H58.0317L60.8352 23.9377H60.9053L63.7228 18.6672H65.2367V28.4513H64.0872V20.2091H64.0172L63.1901 21.8491L60.8492 26.1104L58.5083 21.8491L57.6813 20.2091H57.6112V28.4513H56.4618ZM70.6948 28.6195C69.1248 28.6195 68.0174 27.9747 67.2325 26.9094L68.1015 26.1805C68.7884 27.0916 69.6014 27.5823 70.7368 27.5823C72.1386 27.5823 72.8955 26.8533 72.8955 25.732C72.8955 24.8068 72.3769 24.3442 71.0873 24.0499L70.2883 23.8676C68.5081 23.4611 67.5268 22.6762 67.5268 21.1763C67.5268 19.4381 68.8445 18.499 70.7649 18.499C72.2367 18.499 73.274 19.0597 74.0029 20.097L73.1198 20.7418C72.5871 19.9988 71.8442 19.5363 70.7088 19.5363C69.4612 19.5363 68.6903 20.0829 68.6903 21.1342C68.6903 22.0594 69.293 22.4799 70.5266 22.7603L71.3256 22.9425C73.2319 23.377 74.0589 24.2181 74.0589 25.6759C74.0589 27.4701 72.7974 28.6195 70.6948 28.6195ZM76.8051 26.8113C77.3938 26.8113 77.6602 27.1477 77.6602 27.6383V27.8346C77.6602 28.5915 77.1836 29.6288 76.3846 30.3156H75.4454C76.0061 29.7269 76.3425 29.2363 76.4967 28.5775C76.1183 28.4934 75.9501 28.213 75.9501 27.8346V27.6383C75.9501 27.1477 76.2164 26.8113 76.8051 26.8113ZM87.2131 28.4513H85.7833L82.5313 18.6672H83.7928L85.4048 23.6013L86.4842 27.2739H86.5543L87.6616 23.6013L89.2877 18.6672H90.5072L87.2131 28.4513ZM94.4034 28.6195C92.469 28.6195 91.1374 27.1337 91.1374 24.8348C91.1374 22.536 92.469 21.0501 94.4034 21.0501C96.3378 21.0501 97.6695 22.536 97.6695 24.8348C97.6695 27.1337 96.3378 28.6195 94.4034 28.6195ZM94.4034 27.6243C95.6089 27.6243 96.464 26.8814 96.464 25.3535V24.3162C96.464 22.7883 95.6089 22.0454 94.4034 22.0454C93.1979 22.0454 92.3429 22.7883 92.3429 24.3162V25.3535C92.3429 26.8814 93.1979 27.6243 94.4034 27.6243ZM100.185 19.5222C99.708 19.5222 99.4977 19.2699 99.4977 18.8915V18.7092C99.4977 18.3308 99.708 18.0785 100.185 18.0785C100.661 18.0785 100.871 18.3308 100.871 18.7092V18.8915C100.871 19.2699 100.661 19.5222 100.185 19.5222ZM99.6239 28.4513V21.2184H100.745V28.4513H99.6239ZM105.93 28.6195C103.897 28.6195 102.706 27.1477 102.706 24.8348C102.706 22.522 103.897 21.0501 105.93 21.0501C107.36 21.0501 108.215 21.751 108.635 22.7462L107.696 23.2228C107.43 22.4799 106.813 22.0454 105.93 22.0454C104.598 22.0454 103.911 22.9565 103.911 24.2181V25.4516C103.911 26.7132 104.598 27.6243 105.93 27.6243C106.841 27.6243 107.5 27.1898 107.892 26.3627L108.705 26.9094C108.243 27.9467 107.303 28.6195 105.93 28.6195ZM113.036 28.6195C111.073 28.6195 109.783 27.1337 109.783 24.8348C109.783 22.536 111.073 21.0501 113.036 21.0501C114.97 21.0501 116.161 22.536 116.161 24.5825V25.1152H110.961V25.4516C110.961 26.6992 111.76 27.6383 113.106 27.6383C114.017 27.6383 114.718 27.1898 115.096 26.3908L115.895 26.9655C115.433 27.9467 114.395 28.6195 113.036 28.6195ZM113.036 21.9893C111.816 21.9893 110.961 22.9145 110.961 24.176V24.2741H114.956V24.12C114.956 22.8444 114.185 21.9893 113.036 21.9893ZM118.561 26.8113C119.149 26.8113 119.416 27.1477 119.416 27.6383V27.8346C119.416 28.5915 118.939 29.6288 118.14 30.3156H117.201C117.762 29.7269 118.098 29.2363 118.252 28.5775C117.874 28.4934 117.705 28.213 117.705 27.8346V27.6383C117.705 27.1477 117.972 26.8113 118.561 26.8113ZM128.057 28.6195C126.487 28.6195 125.38 27.9747 124.595 26.9094L125.464 26.1805C126.151 27.0916 126.964 27.5823 128.099 27.5823C129.501 27.5823 130.258 26.8533 130.258 25.732C130.258 24.8068 129.739 24.3442 128.45 24.0499L127.651 23.8676C125.871 23.4611 124.889 22.6762 124.889 21.1763C124.889 19.4381 126.207 18.499 128.127 18.499C129.599 18.499 130.637 19.0597 131.365 20.097L130.482 20.7418C129.95 19.9988 129.207 19.5363 128.071 19.5363C126.824 19.5363 126.053 20.0829 126.053 21.1342C126.053 22.0594 126.656 22.4799 127.889 22.7603L128.688 22.9425C130.595 23.377 131.422 24.2181 131.422 25.6759C131.422 27.4701 130.16 28.6195 128.057 28.6195ZM133.453 31.2548V21.2184H134.574V22.3958H134.63C135.009 21.4847 135.752 21.0501 136.747 21.0501C138.555 21.0501 139.691 22.522 139.691 24.8348C139.691 27.1477 138.555 28.6195 136.747 28.6195C135.752 28.6195 135.065 28.171 134.63 27.2739H134.574V31.2548H133.453ZM136.439 27.6103C137.7 27.6103 138.485 26.7412 138.485 25.4516V24.2181C138.485 22.9285 137.7 22.0594 136.439 22.0594C135.415 22.0594 134.574 22.6481 134.574 23.4471V26.1385C134.574 27.0776 135.415 27.6103 136.439 27.6103ZM144.414 28.6195C142.451 28.6195 141.161 27.1337 141.161 24.8348C141.161 22.536 142.451 21.0501 144.414 21.0501C146.348 21.0501 147.539 22.536 147.539 24.5825V25.1152H142.339V25.4516C142.339 26.6992 143.138 27.6383 144.484 27.6383C145.395 27.6383 146.096 27.1898 146.474 26.3908L147.273 26.9655C146.811 27.9467 145.773 28.6195 144.414 28.6195ZM144.414 21.9893C143.194 21.9893 142.339 22.9145 142.339 24.176V24.2741H146.334V24.12C146.334 22.8444 145.563 21.9893 144.414 21.9893ZM155.385 28.4513H154.754C153.927 28.4513 153.591 27.9467 153.506 27.2739H153.436C153.128 28.157 152.357 28.6195 151.348 28.6195C149.82 28.6195 148.923 27.7785 148.923 26.4328C148.923 25.0731 149.904 24.3162 152.007 24.3162H153.436V23.6013C153.436 22.578 152.876 22.0173 151.726 22.0173C150.857 22.0173 150.282 22.4379 149.89 23.0967L149.217 22.4659C149.61 21.6949 150.479 21.0501 151.782 21.0501C153.52 21.0501 154.558 21.9613 154.558 23.4892V27.4701H155.385V28.4513ZM151.53 27.6664C152.637 27.6664 153.436 27.0916 153.436 26.3487V25.1572H151.95C150.675 25.1572 150.1 25.5497 150.1 26.2506V26.545C150.1 27.2599 150.661 27.6664 151.53 27.6664ZM158.217 28.4513H157.095V21.2184H158.217V22.55H158.287C158.539 21.8632 159.198 21.2184 160.375 21.2184H160.81V22.3397H160.151C158.946 22.3397 158.217 22.8584 158.217 23.5452V28.4513ZM167.065 28.4513H165.888V18.6672H169.784C171.537 18.6672 172.518 19.7465 172.518 21.4707C172.518 23.1948 171.537 24.2741 169.784 24.2741H167.065V28.4513ZM167.065 19.7045V23.2369H169.784C170.709 23.2369 171.256 22.7322 171.256 21.8351V21.1062C171.256 20.2091 170.709 19.7045 169.784 19.7045H167.065ZM174.386 28.4513V18.0785H175.508V22.3958H175.564C175.914 21.5828 176.531 21.0501 177.61 21.0501C179.096 21.0501 180.035 22.0594 180.035 23.8116V28.4513H178.914V24.0078C178.914 22.7182 178.353 22.0594 177.274 22.0594C176.377 22.0594 175.508 22.508 175.508 23.4331V28.4513H174.386ZM183.024 19.5222C182.547 19.5222 182.337 19.2699 182.337 18.8915V18.7092C182.337 18.3308 182.547 18.0785 183.024 18.0785C183.501 18.0785 183.711 18.3308 183.711 18.7092V18.8915C183.711 19.2699 183.501 19.5222 183.024 19.5222ZM182.463 28.4513V21.2184H183.585V28.4513H182.463ZM188.251 28.6195C186.919 28.6195 186.036 28.0588 185.391 27.2038L186.19 26.559C186.751 27.2599 187.424 27.6664 188.335 27.6664C189.288 27.6664 189.849 27.2318 189.849 26.4889C189.849 25.9282 189.54 25.4937 188.587 25.3535L188.012 25.2694C186.681 25.0731 185.685 24.5265 185.685 23.1808C185.685 21.751 186.793 21.0501 188.265 21.0501C189.428 21.0501 190.199 21.4847 190.788 22.2136L190.045 22.8864C189.722 22.4379 189.106 22.0033 188.18 22.0033C187.255 22.0033 186.765 22.4379 186.765 23.1247C186.765 23.8256 187.255 24.1059 188.152 24.2461L188.713 24.3302C190.311 24.5685 190.928 25.2694 190.928 26.3627C190.928 27.7645 189.905 28.6195 188.251 28.6195ZM193.019 28.4513V18.0785H194.14V22.3958H194.196C194.547 21.5828 195.163 21.0501 196.243 21.0501C197.729 21.0501 198.668 22.0594 198.668 23.8116V28.4513H197.546V24.0078C197.546 22.7182 196.986 22.0594 195.906 22.0594C195.009 22.0594 194.14 22.508 194.14 23.4331V28.4513H193.019ZM201.656 19.5222C201.18 19.5222 200.97 19.2699 200.97 18.8915V18.7092C200.97 18.3308 201.18 18.0785 201.656 18.0785C202.133 18.0785 202.343 18.3308 202.343 18.7092V18.8915C202.343 19.2699 202.133 19.5222 201.656 19.5222ZM201.096 28.4513V21.2184H202.217V28.4513H201.096ZM205.832 28.4513H204.71V21.2184H205.832V22.3958H205.888C206.238 21.5828 206.855 21.0501 207.934 21.0501C209.42 21.0501 210.359 22.0594 210.359 23.8116V28.4513H209.238V24.0078C209.238 22.7182 208.677 22.0594 207.598 22.0594C206.701 22.0594 205.832 22.508 205.832 23.4331V28.4513ZM218.885 29.2503C218.885 30.7362 217.707 31.423 215.381 31.423C213.124 31.423 212.199 30.7782 212.199 29.6428C212.199 28.8578 212.633 28.4373 213.348 28.2411V28.0869C212.942 27.8906 212.703 27.5682 212.703 27.0776C212.703 26.3487 213.222 25.9983 213.951 25.8161V25.76C213.096 25.3535 212.591 24.5545 212.591 23.5452C212.591 22.0734 213.67 21.0501 215.31 21.0501C215.829 21.0501 216.292 21.1483 216.684 21.3305V21.2043C216.684 20.6436 216.922 20.2371 217.525 20.2371H218.605V21.2184H217.231V21.6809C217.749 22.1295 218.058 22.7743 218.058 23.5452C218.058 25.0171 216.979 26.0403 215.324 26.0403C215.086 26.0403 214.834 26.0123 214.624 25.9703C214.147 26.0964 213.67 26.3347 213.67 26.7833C213.67 27.2178 214.119 27.3299 214.778 27.3299H216.32C218.114 27.3299 218.885 28.0588 218.885 29.2503ZM217.834 29.3344C217.834 28.7597 217.455 28.3812 216.334 28.3812H213.923C213.46 28.5915 213.25 28.9139 213.25 29.3625C213.25 29.9932 213.684 30.5119 214.82 30.5119H215.857C217.105 30.5119 217.834 30.1194 217.834 29.3344ZM215.324 25.1432C216.278 25.1432 216.88 24.6947 216.88 23.7415V23.349C216.88 22.3958 216.278 21.9473 215.324 21.9473C214.371 21.9473 213.769 22.3958 213.769 23.349V23.7415C213.769 24.6947 214.371 25.1432 215.324 25.1432ZM223 24.0779C223 26.8113 221.851 29.1943 220.463 30.3717H219.397C220.911 29.026 221.949 26.6571 221.949 24.6947V23.4892C221.949 21.5267 220.953 19.1998 219.397 17.7981H220.463C221.893 19.0176 223 21.3725 223 24.0779Z" fill="white"/>
</svg>
