<svg width="32" height="32" viewBox="0 0 32 32" fill="none" xmlns="http://www.w3.org/2000/svg">
<path d="M12.4 24.3C11.9 24 11.4 23.8 10.8 23.9L8.1 24C7.2 22.7 6.3 21.2 5.7 19.7L7 17.6C7.3 17.1 7.5 16.5 7.5 15.9C7.5 15.3 7.3 14.7 7 14.2L5.7 12.2C6.4 10.7 7.2 9.3 8.1 7.9L10.7 8C11.3 8 11.9 7.9 12.4 7.6C12.9 7.3 13.3 6.8 13.5 6.3L14.7 3.6L12.9 2.8L11.7 5.5C11.6 5.7 11.5 5.8 11.4 5.9C11.1 6 10.9 6 10.7 6L7.1 5.8L6.5 6.7C5.5 8.2 4.6 9.7 3.9 11.4L3.5 12.4L5.4 15.3C5.5 15.5 5.6 15.7 5.6 15.9C5.6 16.1 5.5 16.3 5.4 16.5L3.5 19.5L3.9 20.5C4.6 22.2 5.5 23.7 6.5 25.2L7.1 26L10.9 25.8C11 25.8 11.2 25.8 11.3 25.9C11.4 26 11.6 26.1 11.6 26.3L12.5 28.5L14.4 27.7L13.5 25.5C13.2 25 12.9 24.6 12.4 24.3ZM24 24.1V22.5C24 20.8 22.7 19.5 21 19.5H16C15 19.5 14.1 19.1 13.4 18.4C12.7 17.7 12.4 16.7 12.5 15.7C12.7 13.9 14.3 12.6 16.2 12.6H21C22.7 12.6 24 11.3 24 9.6V7.9C25.2 7.5 26.1 6.4 26.1 5C26.1 3.3 24.7 2 23 2C21.3 2 20 3.3 20 5C20 6.3 20.9 7.5 22.1 7.9V9.5C22.1 10.1 21.7 10.5 21.1 10.5H16.3C13.4 10.5 10.9 12.7 10.6 15.5C10.5 17 11 18.6 12 19.7C13 20.8 14.5 21.5 16.1 21.5H21.1C21.7 21.5 22.1 21.9 22.1 22.5V24.1C20.9 24.5 20 25.6 20 27C20 28.7 21.4 30.1 23.1 30.1C24.8 30.1 26.2 28.7 26.2 27C26.1 25.6 25.2 24.5 24 24.1ZM22 5C22 4.4 22.4 4 23 4C23.6 4 24.1 4.5 24.1 5.1C24.1 5.7 23.6 6.1 23 6.1C22.4 6.1 22 5.6 22 5ZM23 28C22.4 28 21.9 27.5 21.9 26.9C21.9 26.3 22.4 25.8 23 25.8C23.6 25.8 24.1 26.3 24.1 26.9C24.1 27.5 23.6 28 23 28ZM26 12.9C24.7 12.9 23.5 13.8 23.1 15H14.6V17H23.1C23.5 18.2 24.6 19.1 26 19.1C27.7 19.1 29.1 17.7 29.1 16C29.1 14.3 27.7 12.9 26 12.9ZM26 17.1C25.4 17.1 24.9 16.6 24.9 16C24.9 15.4 25.4 14.9 26 14.9C26.6 14.9 27.1 15.4 27.1 16C27.1 16.6 26.6 17.1 26 17.1Z" fill="#006DFF"/>
</svg>
