<svg width="64" height="64" viewBox="0 0 64 64" fill="none" xmlns="http://www.w3.org/2000/svg">
<path d="M39.8 34C38.6 34.4 36 32.2001 34 30.6C31 28.0001 27.6 25.0001 23.8 26.2001C20.4 27.2001 18 31.4 16 39.6L19.8 40.6C21.8 32.2 23.8 30.4001 24.8 30.2001C26.4 29.6001 29 32 31.2 33.8C34.2 36.4 37.4 39.2 41 38C44.2 37 46.4 32.8 48 24.6L44 23.8C42.4 32.4 40.4 33.8 39.8 34Z" fill="#006DFF"/>
<path d="M55.6 13.4C55.8 12.6 56 11.8 56 11C56 7.2 52.8 4 49 4C47.6 4 46.4 4.4 45.2 5.2C41.2 3.2 36.8 2 32 2C15.4 2 2 15.4 2 32C2 39 4.4 45.4 8.4 50.6C8.2 51.4 8 52.2 8 53C8 56.8 11.2 60 15 60C16.4 60 17.6 59.6 18.8 58.8C22.8 60.8 27.2 62 32 62C48.6 62 62 48.6 62 32C62 25 59.6 18.6 55.6 13.4ZM52 11C52 12.6 50.6 14 49 14C47.4 14 46 12.6 46 11C46 9.4 47.4 8 49 8C50.6 8 52 9.4 52 11ZM12 53C12 51.4 13.4 50 15 50C16.6 50 18 51.4 18 53C18 54.6 16.6 56 15 56C13.4 56 12 54.6 12 53ZM32 58C28.2 58 24.6 57.2 21.4 55.8C21.8 55 22 54 22 53C22 49.2 18.8 46 15 46C13.6 46 12.2 46.4 11 47.2C7.8 43 6 37.8 6 32C6 17.6 17.6 6 32 6C35.8 6 39.4 6.8 42.6 8.2C42.2 9.2 42 10 42 11C42 14.8 45.2 18 49 18C50.4 18 51.8 17.6 53 16.8C56.2 21 58 26.4 58 32C58 46.4 46.4 58 32 58Z" fill="#006DFF"/>
</svg>
