<svg width="64" height="64" viewBox="0 0 64 64" fill="none" xmlns="http://www.w3.org/2000/svg">
<g clip-path="url(#clip0_164_55)">
<path fill-rule="evenodd" clip-rule="evenodd" d="M14.4 20.6C14.4 28.4 16.4 34.4 21 38.2V40.2C21 41.2 20.4 42 19.4 42.4L16 43.4C11.4 44.8 8.20001 49 8.20001 53.8V59.8H12.2V53.8C12.2 50.8 14.2 48 17 47.2L20.4 46.2C23 45.4 24.6 43.2 24.8 40.6C25.2 40.8 25.4 40.8 25.8 41V36.8C25.2 36.6 24.6 36.2 24.2 36C20.4 33.2 18.2 28.4 18.2 20.8C18.2 15.8 20 12.8 22.2 10.8C23.4 9.80002 24.6 9.00002 26 8.60002V4.40002C23.8 5.00002 21.6 6.00002 19.6 7.60002C16.4 10.4 14.4 14.8 14.4 20.6Z" fill="#006DFF"/>
<path fill-rule="evenodd" clip-rule="evenodd" d="M43.8 43.6L40.4 42.6C39.4 42.4 38.8 41.4 38.8 40.4V38.4C43.4 34.6 45.4 28.4 45.4 20.8C45.4 14.8 43.2 10.6 40.2 7.8C38.2 6.2 36 5 33.8 4.4V0H29.8V3.8V7.8V37.4V41.4V60V64H33.8V60H47.4H51.4V54C51.6 49.2 48.4 45 43.8 43.6Z" fill="#006DFF"/>
</g>
<defs>
<clipPath id="clip0_164_55">
<rect width="64" height="64" fill="white"/>
</clipPath>
</defs>
</svg>
