<svg width="31" height="31" viewBox="0 0 31 31" fill="none" xmlns="http://www.w3.org/2000/svg">
<path d="M25.6356 0.440314C25.7195 -0.146771 26.5665 -0.146771 26.6503 0.440314C26.9083 2.24531 28.3269 3.66306 30.1319 3.92092C30.719 4.00479 30.7189 4.85266 30.1319 4.93658C28.3268 5.19446 26.9082 6.61306 26.6503 8.41817C26.5663 9.00495 25.7197 9.00493 25.6356 8.41817C25.3778 6.6131 23.9591 5.1945 22.1541 4.93658C21.567 4.85272 21.567 4.00479 22.1541 3.92092C23.959 3.66299 25.3777 2.24526 25.6356 0.440314Z" fill="#006DFF"/>
<path d="M27.9386 8.91698C30.9816 14.5943 30.1092 21.8172 25.3194 26.6071C19.4612 32.4648 9.96359 32.4641 4.10563 26.6062C3.87316 26.3736 3.64985 26.135 3.43568 25.8913L4.93867 24.5709C5.12472 24.7826 5.3184 24.9907 5.52073 25.193C10.5978 30.2694 18.8284 30.2688 23.9052 25.192C27.905 21.1922 28.7537 15.2349 26.4512 10.4043L27.9386 8.91698Z" fill="#006DFF"/>
<path d="M3.0509 21.7524C3.29969 22.2567 3.58324 22.749 3.90152 23.2242L2.23935 24.3365C1.87192 23.7879 1.54422 23.2205 1.25689 22.6382L3.0509 21.7524Z" fill="#006DFF"/>
<path fill-rule="evenodd" clip-rule="evenodd" d="M14.7164 6.23035C16.5834 6.23047 18.0579 7.62401 18.407 9.38672C19.1764 9.7311 19.7165 10.5004 19.7166 11.4014V12.2208C20.7002 12.0125 21.4088 11.1654 21.409 10.1934H23.4091C23.4089 12.3114 21.7738 14.0162 19.7166 14.2443V14.7317H22.4081V16.7317H19.7166V17.8343C21.7739 18.0624 23.4091 19.7681 23.4091 21.8862H21.409C21.409 20.8582 20.6161 19.9693 19.5437 19.8285C18.9689 21.9481 17.0212 23.5013 14.7164 23.5015C12.4114 23.5015 10.4629 21.9483 9.88808 19.8285C8.81569 19.9693 8.02375 20.8582 8.02375 21.8862H6.02367C6.02367 19.7679 7.65868 18.0622 9.7162 17.8343V16.7308H7.02371V14.7307H9.90859L11.7163 16.5384V18.5297C11.7163 20.1642 13.0528 21.5015 14.7164 21.5015C16.3798 21.5012 17.7165 20.1641 17.7165 18.5297V11.4014C17.7164 11.2935 17.6258 11.1935 17.4997 11.1934H13.4429L13.439 11.1905L11.1518 8.9033C11.6531 7.37572 13.0236 6.23035 14.7164 6.23035ZM14.7164 8.23043C14.1 8.23043 13.5116 8.59943 13.1929 9.19043H16.2399C15.9213 8.59945 15.3328 8.23052 14.7164 8.23043Z" fill="#006DFF"/>
<path d="M1.96199 18.5404C2.07192 19.095 2.21884 19.6441 2.40146 20.183L0.506856 20.8247C0.29602 20.2024 0.126811 19.5689 0 18.9291L1.96199 18.5404Z" fill="#006DFF"/>
<path d="M4.10563 5.39242C8.73728 0.760836 15.6441 -0.208181 21.2284 2.48411L19.7137 3.99881C15.2887 2.15683 10.0535 2.86464 6.25415 6.12683L14.1959 14.0685C14.361 14.0244 14.5344 14.0002 14.7135 14.0002C15.818 14.0002 16.7133 14.8958 16.7135 16.0003C16.7135 17.1049 15.8181 18.0003 14.7135 18.0003C13.6089 18.0003 12.7134 17.1049 12.7134 16.0003C12.7134 15.8213 12.7367 15.6477 12.7808 15.4827L3.39857 6.09948L4.10563 5.39242Z" fill="#006DFF"/>
</svg>
