<svg width="24" height="30" viewBox="0 0 24 30" fill="none" xmlns="http://www.w3.org/2000/svg">
<path fill-rule="evenodd" clip-rule="evenodd" d="M2 18.5C2 17.3954 2.89543 16.5 4 16.5H11V12H13V16.5H20C21.1046 16.5 22 17.3954 22 18.5V24.1707C23.1652 24.5825 24 25.6938 24 27C24 28.6569 22.6569 30 21 30C19.3431 30 18 28.6569 18 27C18 25.6938 18.8348 24.5825 20 24.1707V19.5C20 18.9477 19.5523 18.5 19 18.5H13V24.1707C14.1652 24.5825 15 25.6938 15 27C15 28.6569 13.6569 30 12 30C10.3431 30 9 28.6569 9 27C9 25.6938 9.83481 24.5825 11 24.1707V18.5H5C4.44772 18.5 4 18.9477 4 19.5V24.1707C5.16519 24.5825 6 25.6938 6 27C6 28.6569 4.65685 30 3 30C1.34315 30 0 28.6569 0 27C0 25.6938 0.834808 24.5825 2 24.1707V18.5ZM2 27C2 26.4477 2.44772 26 3 26C3.55228 26 4 26.4477 4 27C4 27.5523 3.55228 28 3 28C2.44772 28 2 27.5523 2 27ZM11 27C11 26.4477 11.4477 26 12 26C12.5523 26 13 26.4477 13 27C13 27.5523 12.5523 28 12 28C11.4477 28 11 27.5523 11 27ZM20 27C20 26.4477 20.4477 26 21 26C21.5523 26 22 26.4477 22 27C22 27.5523 21.5523 28 21 28C20.4477 28 20 27.5523 20 27Z" fill="#006DFF"/>
<path d="M11.4273 0.497067C11.522 -0.165689 12.4781 -0.165689 12.5727 0.497067C12.8639 2.53472 14.4653 4.13519 16.503 4.42629C17.1657 4.52097 17.1656 5.47812 16.503 5.57287C14.4653 5.86398 12.8638 7.46543 12.5727 9.5032C12.4779 10.1656 11.5222 10.1656 11.4273 9.5032C11.1362 7.46547 9.53472 5.86403 7.49706 5.57287C6.83432 5.47819 6.83431 4.52097 7.49706 4.42629C9.53461 4.13511 11.1361 2.53466 11.4273 0.497067Z" fill="#006DFF"/>
</svg>
