<?xml version="1.0" encoding="UTF-8"?>
<svg id="Layer_1" xmlns="http://www.w3.org/2000/svg" version="1.1" viewBox="0 0 32 32">
  <!-- Generator: Adobe Illustrator 29.7.1, SVG Export Plug-In . SVG Version: 2.1.1 Build 8)  -->
  <path d="M22.5,7c-.6,0-.6-.9,0-1,1.8-.3,3.3-1.7,3.5-3.5,0-.6.9-.6,1,0,.3,1.8,1.7,3.3,3.5,3.5.6,0,.6.9,0,1-1.8.3-3.3,1.7-3.5,3.5,0,.6-.9.6-1,0-.3-1.8-1.7-3.3-3.5-3.5Z" fill="#006dff"/>
  <path d="M15,27h-3v2h8v-2h-3v-2.1c4.5-.5,8-4.3,8-8.9v-2h-2v2c0,3.9-3.1,7-7,7s-7-3.1-7-7v-2h-2v2c0,4.6,3.5,8.4,8,8.9v2.1Z" fill="#006dff"/>
  <path d="M11,8c0-2.8,2.2-5,5-5s5,2.2,5,5v8c0,2.8-2.2,5-5,5s-5-2.2-5-5V8ZM16,5c-1.7,0-3,1.3-3,3v8c0,1.7,1.3,3,3,3s3-1.3,3-3V8c0-1.7-1.3-3-3-3Z" fill="#006dff" fill-rule="evenodd"/>
</svg>