<svg width="32" height="32" viewBox="0 0 32 32" fill="none" xmlns="http://www.w3.org/2000/svg">
<path fill-rule="evenodd" clip-rule="evenodd" d="M25.5 1C21.8745 1 19 4.04246 19 7.71429C19 10.1271 20.2346 12.2563 22.1058 13.4415C22.1366 13.5957 22.161 13.8089 22.1888 14.0963C22.1931 14.1412 22.1975 14.1887 22.2022 14.2383L22.2023 14.2395C22.2471 14.72 22.3104 15.3989 22.4979 15.9137C22.8945 17.0024 23.8986 18 25.5 18C27.1014 18 28.1055 17.0024 28.5021 15.9137C28.6896 15.3989 28.7529 14.72 28.7977 14.2395C28.8024 14.1895 28.8069 14.1416 28.8112 14.0963C28.839 13.8089 28.8634 13.5957 28.8942 13.4415C30.7654 12.2563 32 10.1271 32 7.71429C32 4.04246 29.1255 1 25.5 1ZM21 7.71429C21 5.07429 23.0504 3 25.5 3C27.9496 3 30 5.07429 30 7.71429C30 9.50687 29.0476 11.051 27.6653 11.8479C27.3681 12.0193 27.2091 12.2742 27.1263 12.443C27.0395 12.6198 26.9876 12.8029 26.9533 12.9544C26.9499 12.9695 26.9465 12.9847 26.9433 13H24.0567C24.0535 12.9847 24.0501 12.9695 24.0467 12.9544C24.0124 12.8029 23.9605 12.6198 23.8737 12.443C23.7909 12.2742 23.6319 12.0193 23.3347 11.8479C21.9524 11.051 21 9.50687 21 7.71429ZM24.3771 15.2291C24.3531 15.1634 24.3326 15.087 24.3144 15H26.6856C26.6674 15.087 26.6469 15.1634 26.6229 15.2291C26.4645 15.664 26.1248 16 25.5 16C24.8752 16 24.5355 15.664 24.3771 15.2291Z" fill="#006DFF"/>
<path d="M16 1.92725L18 2.70424V4.84986L16 4.07287L6.25001 7.8607L6.25002 12.86C6.25002 16.1549 6.6445 19.0342 8.06122 21.5317C9.42574 23.9372 11.808 26.1073 16 27.9143C20.192 26.1073 22.5743 23.9372 23.9388 21.5317C24.2198 21.0363 24.4606 20.5258 24.6661 20H26.7915C26.5052 20.8632 26.1403 21.7042 25.6784 22.5185C23.998 25.4808 21.1084 27.9629 16.3833 29.9237L16 30.0827L15.6167 29.9237C10.8915 27.9629 8.00197 25.4808 6.32161 22.5185C4.6524 19.5759 4.25002 16.2849 4.25002 12.86L4.25 6.49207L16 1.92725Z" fill="#006DFF"/>
</svg>
