<svg xmlns="http://www.w3.org/2000/svg" viewBox="0 0 588 588"><defs><clipPath id="a"><path fill="none" d="M0 0h588v588.05H0z"/></clipPath></defs><g clip-path="url(#a)"><path fill="#FF0000" d="M294 588c162.4 0 294-131.6 294-294S456.4 0 294 0 0 131.6 0 294s131.6 294 294 294"/><path d="M300.5 398.1h-45.2v-79.6h47.2c39.8 0 58.5 10.1 58.5 39 0 36.3-35.2 40.6-60.5 40.6m-45.2-192h40.5c27.5 0 36 3.8 44.3 11.7 6.3 6 9.2 14.2 9.2 23.8s-3.1 16.9-9.6 23.1c-8.1 7.8-19.2 11.6-39.6 11.6h-44.8zm95.2 88.6v-.8c28.5-8.6 48-29.2 48-60.5 0-50.3-43-69.4-84.7-69.4H172.6v4.2l14.2 12c17 13.9 19.2 16.6 19.2 29.1v231h99.6c52.3 0 104.6-18.7 104.6-78.9 0-35.5-25-62.8-59.7-66.7" fill="#fff"/></g></svg>
