<?xml version="1.0" standalone="no"?>
<!DOCTYPE svg PUBLIC "-//W3C//DTD SVG 20010904//EN"
 "http://www.w3.org/TR/2001/REC-SVG-20010904/DTD/svg10.dtd">
<svg version="1.0" xmlns="http://www.w3.org/2000/svg"
 width="131.000000pt" height="131.000000pt" viewBox="0 0 131.000000 131.000000"
 preserveAspectRatio="xMidYMid meet">

<g transform="translate(0.000000,131.000000) scale(0.100000,-0.100000)"
fill="#000000" stroke="none">
<path d="M542 1299 c-124 -21 -283 -107 -366 -200 -330 -367 -168 -931 310
-1075 43 -13 91 -18 174 -18 99 0 126 4 195 28 146 50 261 136 338 254 85 130
126 279 113 419 -35 384 -385 655 -764 592z m-18 -215 c3 -9 6 -29 6 -45 0
-16 7 -45 14 -64 l15 -35 95 0 c87 0 96 2 110 22 9 12 16 40 16 61 0 51 15 77
46 77 16 0 28 -8 36 -25 16 -35 -5 -129 -39 -173 -34 -45 -36 -107 -4 -133 12
-10 29 -36 39 -58 23 -51 42 -38 42 30 0 47 18 79 44 79 26 0 36 -26 36 -92 0
-64 -2 -69 -36 -103 -43 -43 -38 -59 6 -22 36 31 73 24 78 -13 5 -32 -53 -90
-90 -90 -37 0 -35 -9 7 -50 35 -34 36 -35 33 -110 -3 -71 -4 -75 -27 -78 -33
-5 -51 21 -51 74 0 35 -18 74 -34 74 -2 0 -16 -18 -31 -41 -42 -59 -102 -91
-173 -91 -31 0 -73 7 -93 16 -35 14 -101 79 -111 107 -4 11 -9 10 -27 -5 -16
-15 -21 -30 -21 -72 0 -49 -2 -54 -25 -60 -42 -10 -55 10 -55 84 0 64 1 68 42
109 l42 43 -34 0 c-28 0 -42 7 -67 37 -37 43 -40 55 -17 77 21 21 27 20 62 -9
49 -41 59 -28 14 18 -40 40 -42 46 -42 101 0 65 12 96 38 96 29 0 42 -21 42
-71 0 -28 6 -51 15 -59 12 -10 17 -6 28 22 8 19 25 43 39 54 33 26 33 101 1
136 -29 31 -43 70 -43 123 0 61 8 75 40 75 16 0 30 -7 34 -16z"/>
<path d="M607 853 c-17 -16 -3 -23 48 -23 42 0 55 3 55 15 0 11 -12 15 -48 15
-27 0 -52 -3 -55 -7z"/>
<path d="M541 694 c-18 -23 -21 -41 -21 -120 0 -113 17 -165 65 -194 44 -27
114 -27 149 1 47 37 56 68 56 189 0 146 -4 150 -134 150 -90 0 -96 -1 -115
-26z"/>
</g>
</svg>
