<svg id="Group_23299" data-name="Group 23299" xmlns="http://www.w3.org/2000/svg" xmlns:xlink="http://www.w3.org/1999/xlink" width="16.69" height="22" viewBox="0 0 16.69 22">
  <defs>
    <clipPath id="clip-path">
      <rect id="Rectangle_6093" data-name="Rectangle 6093" width="16.69" height="22" fill="#efb5be"/>
    </clipPath>
  </defs>
  <g id="Group_23298" data-name="Group 23298" clip-path="url(#clip-path)">
    <path id="Path_25367" data-name="Path 25367" d="M5.31,7.776a.949.949,0,1,1-.948.948.948.948,0,0,1,.948-.948" fill="#efb5be"/>
    <path id="Path_25368" data-name="Path 25368" d="M8.345,7.776a.949.949,0,1,1-.948.948.948.948,0,0,1,.948-.948" fill="#efb5be"/>
    <path id="Path_25369" data-name="Path 25369" d="M11.379,7.776a.949.949,0,1,1-.948.948.948.948,0,0,1,.948-.948" fill="#efb5be"/>
    <path id="Path_25370" data-name="Path 25370" d="M12.388,15.715a8.345,8.345,0,1,0-8.086,0c.363.2.452,1.1.548,2.074a9.107,9.107,0,0,0,.366,2.116A3.182,3.182,0,0,0,8.345,22a3.182,3.182,0,0,0,3.129-2.095,9.107,9.107,0,0,0,.366-2.116c.1-.976.185-1.872.548-2.074M8.345,1.517a6.871,6.871,0,0,0-3.3,12.872,2.062,2.062,0,0,1,.8.842,3.257,3.257,0,0,1,.274.737c.017.067.032.135.047.2l4.942-1.334a1.944,1.944,0,0,1,.541-.45,6.871,6.871,0,0,0-3.3-12.872m2.106,15.071-4.086,1.1c.03.3.057.579.1.856.008.057.016.11.024.161l3.849-1.1c.01-.1.02-.2.031-.307.023-.223.05-.468.087-.714m-2.106,3.9A1.83,1.83,0,0,1,7.139,20.1l2.953-.844c-.012.043-.025.081-.037.115a1.674,1.674,0,0,1-1.71,1.113" fill="#efb5be" fill-rule="evenodd"/>
  </g>
</svg>
