<svg width="287" class="safe" height="258" viewBox="0 0 287 258" fill="none" xmlns="http://www.w3.org/2000/svg" style="safe">
<ellipse opacity="0.3" cx="144.965" cy="239.241" rx="77.2414" ry="14.4828" fill="url(#paint0_radial_1066_2668)"/>
<ellipse cx="52.9049" cy="136.388" rx="52.9049" ry="136.388" transform="matrix(0.258819 0.965926 0.949282 -0.314426 0.613281 132.866)" stroke="#49CE4E" stroke-width="1.63636"/>
<path d="M45.2914 36.1603C44.6964 36.6384 44.1292 37.1466 43.5906 37.6852C22.9299 58.3459 52.1169 115.984 108.782 166.424C165.446 216.864 228.131 241.005 248.792 220.345C255.841 213.295 257.087 201.941 253.419 188.037M57.9589 30.8689C85.907 26.2329 136.806 49.9518 183.6 91.6055C215.225 119.756 238.29 150.148 248.909 175.103" stroke="#49CE4E" stroke-width="2.18182"/>
<ellipse cx="51.5169" cy="33.2219" rx="2.69712" ry="2.69713" fill="#49CE4E"/>
<circle cx="251.105" cy="181.564" r="2.69713" fill="#49CE4E"/>
<path fill-rule="evenodd" clip-rule="evenodd" d="M136.46 40.8541L68.7541 64.4084L68.8744 65.1878L64.1468 66.8325L76.5103 146.927C80.4746 172.609 98.9594 195.994 123.995 207.001L159.537 222.627L190.254 207.001C191.099 206.572 191.929 206.123 192.742 205.656L194.862 204.577C216.499 193.57 227.765 170.185 223.8 144.503L211.437 64.4084L136.46 40.8541ZM192.742 205.656C212.749 194.164 223.002 171.606 219.193 146.927L206.829 66.8325L131.852 43.2782L68.8744 65.1878L81.1176 144.503C85.0819 170.185 103.567 193.57 128.603 204.577L164.144 220.203L192.742 205.656Z" fill="url(#paint1_linear_1066_2668)"/>
<path opacity="0.9" d="M68.7776 64.4074L136.477 40.8531L211.447 64.4074L223.809 144.502C227.773 170.184 216.509 193.569 194.873 204.576L164.159 220.202L128.62 204.576C103.587 193.569 85.1038 170.184 81.14 144.502L68.7776 64.4074Z" fill="url(#paint2_linear_1066_2668)"/>
<path opacity="0.72" fill-rule="evenodd" clip-rule="evenodd" d="M71.1342 63.613L68.8652 64.4074L81.525 144.502C85.5842 170.184 104.085 193.569 129.05 204.576L164.492 220.202L194.994 204.576C195.642 204.244 196.28 203.901 196.909 203.547L166.7 219.023L131.258 203.397C106.293 192.39 87.7924 169.004 83.7332 143.323L71.1342 63.613Z" fill="url(#paint3_linear_1066_2668)"/>
<path opacity="0.8" fill-rule="evenodd" clip-rule="evenodd" d="M136.13 40.8534L68.8687 64.4077L68.9904 65.177L131.713 43.2121L206.428 66.7664L219.1 146.861C222.99 171.452 212.977 193.937 193.262 205.466L194.998 204.577C216.478 193.57 227.58 170.184 223.517 144.503L210.845 64.4077L136.13 40.8534Z" fill="url(#paint4_linear_1066_2668)"/>
<path opacity="0.7" d="M195.035 204.576L164.441 220.202L136.87 40.8531L211.546 64.4074L223.859 144.502C227.807 170.184 216.586 193.569 195.035 204.576Z" fill="url(#paint5_linear_1066_2668)"/>
<path fill-rule="evenodd" clip-rule="evenodd" d="M182.67 113.744L143.989 157.353L114.598 132.786L121.49 125.016L141.585 141.813L173.374 105.974L182.67 113.744Z" fill="url(#paint6_linear_1066_2668)"/>
<path fill-rule="evenodd" clip-rule="evenodd" d="M186.042 111.385L147.361 154.995L117.97 130.427L124.862 122.657L144.957 139.454L176.746 103.615L186.042 111.385Z" fill="white"/>
<path d="M248.789 220.345C228.129 241.006 165.444 216.865 108.779 166.425C52.1147 115.985 22.9277 58.3462 43.5884 37.6855" stroke="#49CE4E" stroke-width="2.18182"/>
<path d="M273.248 98.201C280.81 126.424 228.974 168.503 157.47 192.187C85.965 215.871 21.8685 212.192 14.3062 183.969" stroke="#49CE4E" stroke-width="1.63636"/>
<defs>
<radialGradient id="paint0_radial_1066_2668" cx="0" cy="0" r="1" gradientUnits="userSpaceOnUse" gradientTransform="translate(144.965 239.241) rotate(90) scale(14.4828 77.2414)">
<stop stop-color="#2EA936"/>
<stop offset="1" stop-color="#2EA936" stop-opacity="0"/>
</radialGradient>
<linearGradient id="paint1_linear_1066_2668" x1="64.9205" y1="43.7816" x2="93.1548" y2="254.42" gradientUnits="userSpaceOnUse">
<stop stop-color="#49CE4E"/>
<stop offset="0.649333" stop-color="#5BAC50"/>
<stop offset="1" stop-color="#06930C"/>
</linearGradient>
<linearGradient id="paint2_linear_1066_2668" x1="214.913" y1="39.6997" x2="86.5164" y2="204.709" gradientUnits="userSpaceOnUse">
<stop stop-color="#BCF193"/>
<stop offset="0.290451" stop-color="#56B825" stop-opacity="0.8"/>
<stop offset="0.781201" stop-color="#99E05A" stop-opacity="0.9"/>
<stop offset="1" stop-color="#BCF193"/>
</linearGradient>
<linearGradient id="paint3_linear_1066_2668" x1="119.062" y1="123.401" x2="77.1406" y2="182.027" gradientUnits="userSpaceOnUse">
<stop stop-color="white" stop-opacity="0.2"/>
<stop offset="1" stop-color="white"/>
</linearGradient>
<linearGradient id="paint4_linear_1066_2668" x1="205.417" y1="43.5045" x2="103.389" y2="97.3976" gradientUnits="userSpaceOnUse">
<stop stop-color="#49CE4E"/>
<stop offset="0.649333" stop-color="#5BAC50"/>
<stop offset="1" stop-color="#06930C"/>
</linearGradient>
<linearGradient id="paint5_linear_1066_2668" x1="200.628" y1="55.3949" x2="107.155" y2="119.211" gradientUnits="userSpaceOnUse">
<stop stop-color="#DCF8FF"/>
<stop offset="0.966033" stop-color="#DCF8FF" stop-opacity="0"/>
</linearGradient>
<linearGradient id="paint6_linear_1066_2668" x1="111.621" y1="106.801" x2="175.264" y2="172.054" gradientUnits="userSpaceOnUse">
<stop stop-color="#49CE4E"/>
<stop offset="0.649333" stop-color="#5BAC50"/>
<stop offset="1" stop-color="#06930C"/>
</linearGradient>
</defs>
</svg>
