<svg width="504" height="138" viewBox="0 0 504 138" fill="none" xmlns="http://www.w3.org/2000/svg">
<g opacity="0.8">
<mask id="mask0_3734_1879" style="mask-type:alpha" maskUnits="userSpaceOnUse" x="0" y="0" width="504" height="138">
<rect width="504" height="138" rx="16" fill="#F2FFF8"/>
</mask>
<g mask="url(#mask0_3734_1879)">
<path opacity="0.15" d="M-32.4229 52.1215L-35.596 42.8018C-37.8763 36.1045 -38.4823 29.5197 -37.4142 23.0473C-36.346 16.575 -33.4389 10.6993 -28.6926 5.4202C-23.9464 0.14111 -17.2097 -3.96284 -8.48234 -6.89165C0.489684 -9.90258 8.47518 -10.7393 15.4742 -9.40178C22.4731 -8.06427 28.3341 -5.13106 33.0569 -0.602146C37.8614 3.89939 41.4037 9.49881 43.684 16.1961L46.8571 25.5158C49.0824 32.0517 49.661 38.5558 48.5928 45.0282C47.6062 51.4731 44.7398 57.3351 39.9936 62.6142C35.329 67.866 28.5922 71.9699 19.7833 74.9261C10.8929 77.9096 2.94814 78.7327 -4.05084 77.3952C-11.0498 76.0576 -16.9923 73.1518 -21.8783 68.6776C-26.6828 64.1761 -30.1976 58.6574 -32.4229 52.1215ZM-9.16937 33.9332L-5.99626 43.2529C-5.17208 45.6736 -3.89972 47.8091 -2.17919 49.6592C-0.45866 51.5094 1.61389 52.7919 4.03846 53.5067C6.51712 54.1134 9.22459 53.9241 12.1609 52.9387C15.1788 51.926 17.4059 50.4593 18.8423 48.5387C20.2512 46.5374 21.0334 44.2969 21.1888 41.8171C21.4258 39.31 21.1322 36.8461 20.3081 34.4254L17.135 25.1057C16.2558 22.5236 14.956 20.3075 13.2355 18.4573C11.5965 16.5798 9.57847 15.3239 7.18137 14.6898C4.75681 13.975 2.03559 14.124 -0.982268 15.1368C-3.837 16.0948 -6.00961 17.5881 -7.50011 19.6168C-9.01807 21.5648 -9.89556 23.7923 -10.1326 26.2994C-10.3696 28.8065 -10.0485 31.3511 -9.16937 33.9332ZM85.8683 122.878L82.6951 113.559C80.4424 106.942 79.8501 100.397 80.9182 93.9251C82.0679 87.4254 85.0159 81.536 89.7621 76.257C94.5899 70.9505 101.367 66.8329 110.095 63.904C119.067 60.8931 127.011 60.0701 133.929 61.435C140.928 62.7725 146.789 65.7057 151.512 70.2346C156.316 74.7361 159.845 80.2952 162.098 86.9118L165.271 96.2315C167.523 102.848 168.116 109.393 167.048 115.865C166.061 122.31 163.235 128.158 158.571 133.41C153.906 138.662 147.169 142.766 138.36 145.722C129.47 148.705 121.484 149.542 114.404 148.232C107.323 146.922 101.34 144.03 96.4541 139.555C91.6496 135.054 88.121 129.495 85.8683 122.878ZM109.244 104.649L112.417 113.969C113.269 116.47 114.677 118.605 116.643 120.373C118.608 122.141 120.843 123.369 123.35 124.056C125.828 124.663 128.291 124.556 130.738 123.734C134.49 122.475 137.043 120.899 138.398 119.006C139.807 117.005 140.426 114.819 140.255 112.449C140.166 110.051 139.696 107.601 138.844 105.1L135.671 95.7804C134.819 93.279 133.533 91.1032 131.813 89.253C130.092 87.4028 128.033 86.1607 125.636 85.5266C123.212 84.8118 120.531 84.9471 117.595 85.9325C114.659 86.9179 112.445 88.4249 110.955 90.4536C109.437 92.4015 108.559 94.6291 108.322 97.1362C108.085 99.6433 108.393 102.148 109.244 104.649ZM96.0584 -10.9557L55.9666 155.975L33.5028 152.859L73.5946 -14.0713L96.0584 -10.9557Z" fill="#A3E1BF"/>
<path opacity="0.15" d="M154.761 52.1215L151.588 42.8018C149.307 36.1045 148.701 29.5197 149.769 23.0473C150.838 16.575 153.745 10.6993 158.491 5.4202C163.237 0.14111 169.974 -3.96284 178.701 -6.89165C187.673 -9.90258 195.659 -10.7393 202.658 -9.40178C209.657 -8.06427 215.518 -5.13106 220.241 -0.602146C225.045 3.89939 228.587 9.49881 230.868 16.1961L234.041 25.5158C236.266 32.0517 236.845 38.5558 235.776 45.0282C234.79 51.4731 231.923 57.3351 227.177 62.6142C222.513 67.866 215.776 71.9699 206.967 74.9261C198.076 77.9096 190.132 78.7327 183.133 77.3952C176.134 76.0576 170.191 73.1518 165.305 68.6776C160.501 64.1761 156.986 58.6574 154.761 52.1215ZM178.014 33.9332L181.187 43.2529C182.012 45.6736 183.284 47.8091 185.004 49.6592C186.725 51.5094 188.797 52.7919 191.222 53.5067C193.701 54.1134 196.408 53.9241 199.344 52.9387C202.362 51.926 204.589 50.4593 206.026 48.5387C207.435 46.5374 208.217 44.2969 208.372 41.8171C208.609 39.31 208.316 36.8461 207.492 34.4254L204.319 25.1057C203.439 22.5236 202.14 20.3075 200.419 18.4573C198.78 16.5798 196.762 15.3239 194.365 14.6898C191.94 13.975 189.219 14.124 186.201 15.1368C183.347 16.0948 181.174 17.5881 179.683 19.6168C178.166 21.5648 177.288 23.7923 177.051 26.2994C176.814 28.8065 177.135 31.3511 178.014 33.9332ZM273.052 122.878L269.879 113.559C267.626 106.942 267.034 100.397 268.102 93.9251C269.252 87.4254 272.199 81.536 276.946 76.257C281.773 70.9505 288.551 66.8329 297.278 63.904C306.25 60.8931 314.195 60.0701 321.113 61.435C328.111 62.7725 333.972 65.7057 338.695 70.2346C343.5 74.7361 347.028 80.2952 349.281 86.9118L352.454 96.2315C354.707 102.848 355.299 109.393 354.231 115.865C353.245 122.31 350.419 128.158 345.754 133.41C341.09 138.662 334.353 142.766 325.544 145.722C316.654 148.705 308.668 149.542 301.587 148.232C294.507 146.922 288.524 144.03 283.638 139.555C278.833 135.054 275.305 129.495 273.052 122.878ZM296.428 104.649L299.601 113.969C300.453 116.47 301.861 118.605 303.826 120.373C305.791 122.141 308.027 123.369 310.533 124.056C313.012 124.663 315.475 124.556 317.922 123.734C321.674 122.475 324.227 120.899 325.582 119.006C326.991 117.005 327.61 114.819 327.439 112.449C327.35 110.051 326.879 107.601 326.028 105.1L322.854 95.7804C322.003 93.279 320.717 91.1032 318.996 89.253C317.276 87.4028 315.217 86.1607 312.82 85.5266C310.395 84.8118 307.715 84.9471 304.778 85.9325C301.842 86.9179 299.629 88.4249 298.138 90.4536C296.62 92.4015 295.743 94.6291 295.506 97.1362C295.269 99.6433 295.576 102.148 296.428 104.649ZM283.242 -10.9557L243.15 155.975L220.686 152.859L260.778 -14.0713L283.242 -10.9557Z" fill="#A3E1BF"/>
<path opacity="0.15" d="M341.944 52.1215L338.771 42.8018C336.491 36.1045 335.885 29.5197 336.953 23.0473C338.021 16.575 340.928 10.6993 345.675 5.4202C350.421 0.14111 357.158 -3.96284 365.885 -6.89165C374.857 -9.90258 382.842 -10.7393 389.841 -9.40178C396.84 -8.06427 402.701 -5.13106 407.424 -0.602146C412.229 3.89939 415.771 9.49881 418.051 16.1961L421.224 25.5158C423.45 32.0517 424.028 38.5558 422.96 45.0282C421.973 51.4731 419.107 57.3351 414.361 62.6142C409.696 67.866 402.959 71.9699 394.15 74.9261C385.26 77.9096 377.315 78.7327 370.316 77.3952C363.317 76.0576 357.375 73.1518 352.489 68.6776C347.684 64.1761 344.17 58.6574 341.944 52.1215ZM365.198 33.9332L368.371 43.2529C369.195 45.6736 370.467 47.8091 372.188 49.6592C373.909 51.5094 375.981 52.7919 378.406 53.5067C380.884 54.1134 383.592 53.9241 386.528 52.9387C389.546 51.926 391.773 50.4593 393.209 48.5387C394.618 46.5374 395.401 44.2969 395.556 41.8171C395.793 39.31 395.499 36.8461 394.675 34.4254L391.502 25.1057C390.623 22.5236 389.323 20.3075 387.603 18.4573C385.964 16.5798 383.946 15.3239 381.549 14.6898C379.124 13.975 376.403 14.124 373.385 15.1368C370.53 16.0948 368.358 17.5881 366.867 19.6168C365.349 21.5648 364.472 23.7923 364.235 26.2994C363.998 28.8065 364.319 31.3511 365.198 33.9332ZM460.235 122.878L457.062 113.559C454.81 106.942 454.217 100.397 455.285 93.9251C456.435 87.4254 459.383 81.536 464.129 76.257C468.957 70.9505 475.735 66.8329 484.462 63.904C493.434 60.8931 501.379 60.0701 508.296 61.435C515.295 62.7725 521.156 65.7057 525.879 70.2346C530.683 74.7361 534.212 80.2952 536.465 86.9118L539.638 96.2315C541.891 102.848 542.483 109.393 541.415 115.865C540.428 122.31 537.603 128.158 532.938 133.41C528.273 138.662 521.536 142.766 512.728 145.722C503.837 148.705 495.852 149.542 488.771 148.232C481.691 146.922 475.707 144.03 470.821 139.555C466.017 135.054 462.488 129.495 460.235 122.878ZM483.611 104.649L486.784 113.969C487.636 116.47 489.045 118.605 491.01 120.373C492.975 122.141 495.211 123.369 497.717 124.056C500.195 124.663 502.658 124.556 505.105 123.734C508.857 122.475 511.41 120.899 512.765 119.006C514.174 117.005 514.793 114.819 514.623 112.449C514.533 110.051 514.063 107.601 513.211 105.1L510.038 95.7804C509.186 93.279 507.9 91.1032 506.18 89.253C504.459 87.4028 502.4 86.1607 500.003 85.5266C497.579 84.8118 494.898 84.9471 491.962 85.9325C489.026 86.9179 486.812 88.4249 485.322 90.4536C483.804 92.4015 482.926 94.6291 482.689 97.1362C482.452 99.6433 482.76 102.148 483.611 104.649ZM470.426 -10.9557L430.334 155.975L407.87 152.859L447.962 -14.0713L470.426 -10.9557Z" fill="#A3E1BF"/>
</g>
</g>
</svg>
