<?xml version="1.0" encoding="UTF-8"?>
<svg id="Layer_1" xmlns="http://www.w3.org/2000/svg" version="1.1" viewBox="0 0 20 21">
  <!-- Generator: Adobe Illustrator 29.2.1, SVG Export Plug-In . SVG Version: 2.1.0 Build 116)  -->
  <defs>
    <style>
      .st0 {
        isolation: isolate;
      }

      .st1 {
        fill: #006eff;
      }
    </style>
  </defs>
  <g class="st0">
    <path class="st1" d="M18.3,1.8c.5,0,1.1.4,1.1,1.1v5.7c0,.4-.3.7-.7.7h-5.7c-.6,0-1.1-.5-1.1-1.1s0-.5.3-.7l1.8-1.8c-1.1-.9-2.5-1.4-4-1.4-3.4,0-6.2,2.8-6.2,6.2s2.8,6.2,6.2,6.2,3.5-1.5,4.5-1.5,1.2.6,1.2,1.2c0,1.4-3.2,2.8-5.7,2.8-4.8,0-8.7-3.9-8.7-8.7S5.2,1.8,10,1.8s4.1.8,5.7,2.2l1.9-1.9c.2-.2.5-.3.7-.3Z"/>
  </g>
</svg>