<?xml version="1.0" encoding="UTF-8"?>
<svg id="Layer_1" xmlns="http://www.w3.org/2000/svg" xmlns:xlink="http://www.w3.org/1999/xlink" version="1.1" viewBox="0 0 33.9 39.2">
  <!-- Generator: Adobe Illustrator 29.5.1, SVG Export Plug-In . SVG Version: 2.1.0 Build 141)  -->
  <defs>
    <style>
      .st0 {
        fill: none;
      }

      .st1 {
        fill: #006eff;
      }

      .st2 {
        clip-path: url(#clippath);
      }
    </style>
    <clipPath id="clippath">
      <rect class="st0" width="33.9" height="39.2"/>
    </clipPath>
  </defs>
  <g id="Group_23247">
    <g class="st2">
      <g id="Group_23246">
        <path id="Path_25356" class="st1" d="M16.3,36.2c-5.8-2.5-9.1-5.5-11-8.9-2-3.5-2.5-7.5-2.5-12.1v-7l13.6-5.3,7.8,3,2.1-2.2L16.3,0,0,6.4v8.9c0,4.8.6,9.3,2.9,13.4,2.3,4.1,6.4,7.6,12.9,10.3l.5.2.5-.2c5.2-2.2,8.8-4.8,11.2-7.8l-2-2c-2,2.6-5.1,5-9.8,7"/>
        <path id="Path_25357" class="st1" d="M15.4,10.8c-.5,3.6-3.3,6.4-6.9,6.9-.6,0-.9.6-.8,1.2,0,.4.4.8.8.8,3.6.5,6.4,3.3,6.9,6.9,0,.6.6.9,1.2.8.4,0,.8-.4.8-.8.5-3.6,3.3-6.4,6.9-6.9.6,0,.9-.6.8-1.2,0-.4-.4-.8-.8-.8-3.6-.5-6.4-3.3-6.9-6.9,0-.6-.6-.9-1.2-.8-.4,0-.8.4-.8.8"/>
        <path id="Path_25358" class="st1" d="M33.4,9.4c-2-.3-3.5-1.8-3.8-3.8,0-.3-.3-.5-.6-.5-.2,0-.4.2-.5.5-.3,2-1.8,3.5-3.8,3.8-.3,0-.5.3-.5.6,0,.2.2.4.5.5,2,.3,3.5,1.8,3.8,3.8,0,.3.3.5.6.5.2,0,.4-.2.5-.5.3-2,1.8-3.5,3.8-3.8.3,0,.5-.3.5-.6,0-.2-.2-.4-.5-.5"/>
        <path id="Path_25359" class="st1" d="M32,23.6c-1.3-.2-2.4-1.3-2.6-2.6,0-.2-.2-.4-.4-.3-.2,0-.3.2-.3.3-.2,1.3-1.3,2.4-2.6,2.6-.2,0-.4.2-.3.4,0,.2.2.3.3.3,1.3.2,2.4,1.3,2.6,2.6,0,.2.2.4.4.3.2,0,.3-.2.3-.3.2-1.3,1.3-2.4,2.6-2.6.2,0,.4-.2.3-.4,0-.2-.2-.3-.3-.3"/>
      </g>
    </g>
  </g>
</svg>