<svg xmlns="http://www.w3.org/2000/svg" width="18" height="18" viewBox="0 0 18 18">
  <path id="Path_25454" data-name="Path 25454" d="M9-15.75a9,9,0,0,0-9,9,9,9,0,0,0,9,9,9,9,0,0,0,9-9A9,9,0,0,0,9-15.75ZM9,.563A7.321,7.321,0,0,1,1.688-6.75,7.321,7.321,0,0,1,9-14.062,7.321,7.321,0,0,1,16.313-6.75,7.321,7.321,0,0,1,9,.563ZM12.639-11.05a.843.843,0,0,0-1.189.1L9-8.058,6.55-10.951a.842.842,0,0,0-1.188-.1.842.842,0,0,0-.1,1.188L7.9-6.75,5.264-3.639a.844.844,0,0,0,.1,1.189.822.822,0,0,0,.512.2.843.843,0,0,0,.645-.3L9-5.442l2.449,2.895a.846.846,0,0,0,.644.3.839.839,0,0,0,.544-.2.844.844,0,0,0,.1-1.189L10.1-6.75l2.633-3.111A.841.841,0,0,0,12.639-11.05Z" transform="translate(0 15.75)" fill="#b7b7b7"/>
</svg>
